<svg width="115" height="110" viewBox="0 0 115 110" fill="none" xmlns="http://www.w3.org/2000/svg">
<path d="M113.537 40.4519C112.738 34.9531 110.27 29.832 106.467 25.7809C102.664 21.7298 97.709 18.9439 92.2715 17.7997C88.4101 16.9762 84.9318 14.8929 82.3835 11.8771C78.3656 7.13263 73.1058 3.60085 67.1935 1.67759C61.2813 -0.245668 54.9502 -0.484391 48.9099 0.988175C42.8696 2.46074 37.3588 5.5864 32.995 10.0149C28.6312 14.4433 25.587 19.9995 24.2035 26.0608C23.6142 28.6215 22.4621 31.0189 20.8309 33.0788C19.1996 35.1387 17.1302 36.8096 14.7727 37.9701C11.1723 39.767 8.05192 42.3959 5.66997 45.639C3.28802 48.8821 1.7131 52.6461 1.07566 56.6192C0.438231 60.5923 0.756637 64.66 2.00451 68.4855C3.25237 72.311 5.39379 75.7841 8.25135 78.6171C11.1089 81.4501 14.6004 83.5615 18.4365 84.7763C22.2726 85.9911 26.343 86.2744 30.3104 85.6027C34.2778 84.931 38.0281 83.3236 41.2505 80.9138C44.473 78.5039 47.0748 75.3609 48.8406 71.7452C49.5431 70.3028 50.6388 69.0883 52.0014 68.2416C53.3641 67.3948 54.9383 66.9503 56.5426 66.9593C56.8019 66.9613 57.0611 66.9602 57.3202 66.9561C59.8643 66.9713 62.3275 67.8514 64.3052 69.4519C66.2828 71.0525 67.6571 73.2781 68.2023 75.7632C68.7999 78.2175 69.9048 80.5194 71.4458 82.5209C72.9869 84.5223 74.93 86.1789 77.1501 87.3839C79.3701 88.5889 81.8179 89.3157 84.3358 89.5174C86.8538 89.7192 89.386 89.3915 91.7696 88.5553C95.1647 87.3648 98.1272 85.1882 100.278 82.3041C102.429 79.42 103.67 75.9596 103.842 72.366C104.004 68.3133 105.435 64.414 107.935 61.2196C110.239 58.325 111.925 54.9885 112.888 51.4165C113.852 47.8444 114.073 44.1126 113.537 40.4519Z" fill="#D1D6E0"/>
<path d="M39.8747 18.5691C40.1397 16.0989 39.4953 13.6167 38.0619 11.5874C36.6286 9.55808 34.5047 8.12085 32.0879 7.54481C29.6711 6.96878 27.1273 7.29344 24.9327 8.45801C22.7381 9.62258 21.0432 11.5472 20.1655 13.8714C19.3642 13.2366 18.4004 12.8399 17.3843 12.7268C16.3682 12.6137 15.3408 12.7888 14.4194 13.2319C13.4981 13.675 12.72 14.3684 12.1741 15.2328C11.6281 16.0972 11.3363 17.0977 11.332 18.1201C11.332 18.2769 11.3425 18.4311 11.3557 18.5846C9.535 19.2145 7.99713 20.4703 7.01608 22.1283C6.03504 23.7863 5.67456 25.7388 5.99888 27.6379C6.3232 29.5369 7.31126 31.2591 8.78698 32.4975C10.2627 33.736 12.1302 34.4102 14.0567 34.4001H37.2161C39.1466 34.4101 41.0176 33.733 42.4945 32.49C43.9715 31.2469 44.958 29.519 45.2777 27.6152C45.5974 25.7114 45.2294 23.756 44.2395 22.0987C43.2497 20.4414 41.7025 19.1903 39.8747 18.5691Z" fill="white"/>
<path d="M37.2162 35.3044H14.057C11.9748 35.3145 9.95303 34.6051 8.3337 33.2962C6.71437 31.9872 5.59686 30.1591 5.17022 28.1211C4.74357 26.0831 5.03398 23.9603 5.99232 22.1117C6.95066 20.2631 8.5181 18.8024 10.4295 17.9764C10.4584 16.8945 10.7631 15.8378 11.3146 14.9065C11.8662 13.9752 12.6464 13.2002 13.5813 12.6548C14.5162 12.1095 15.5749 11.8118 16.657 11.7901C17.7392 11.7684 18.8089 12.0233 19.765 12.5308C20.8801 10.289 22.7191 8.48909 24.9842 7.42227C27.2494 6.35544 29.8082 6.08411 32.2467 6.65218C34.6852 7.22025 36.8607 8.59448 38.4212 10.5525C39.9817 12.5106 40.8359 14.9378 40.8455 17.4416C40.8455 17.6147 40.8411 17.7905 40.8314 17.9702C42.7451 18.7939 44.3153 20.2535 45.2763 22.1021C46.2372 23.9507 46.5298 26.0745 46.1044 28.114C45.6791 30.1536 44.5619 31.9834 42.9422 33.2938C41.3224 34.6041 39.2996 35.3144 37.2162 35.3044ZM16.7814 13.5977C15.5795 13.5962 14.426 14.0714 13.574 14.9192C12.722 15.7669 12.241 16.918 12.2366 18.12C12.2366 18.2507 12.2459 18.3792 12.2569 18.5068C12.2743 18.707 12.2244 18.9073 12.1153 19.0761C12.0061 19.2448 11.8439 19.3724 11.6541 19.4386C10.0351 19.998 8.66747 21.1142 7.79503 22.5883C6.92258 24.0623 6.60208 25.7983 6.8907 27.4867C7.17931 29.1751 8.05826 30.7061 9.37081 31.8067C10.6834 32.9072 12.3441 33.5058 14.057 33.4956H37.2163C38.9326 33.5056 40.5965 32.9045 41.9101 31.7998C43.2237 30.6952 44.1014 29.1591 44.3859 27.4664C44.6704 25.7738 44.3433 24.0352 43.463 22.5618C42.5828 21.0883 41.2069 19.9762 39.5816 19.4245C39.3871 19.3578 39.2212 19.2268 39.111 19.0532C39.0009 18.8796 38.9531 18.6737 38.9756 18.4693C39.1258 17.169 38.998 15.8516 38.6006 14.6044C38.2032 13.3573 37.5453 12.2088 36.6705 11.2351C35.7957 10.2614 34.724 9.48468 33.5264 8.95644C32.3287 8.4282 31.0325 8.16049 29.7236 8.17104C27.8333 8.17645 25.989 8.75453 24.4338 9.82907C22.8786 10.9036 21.6855 12.4242 21.0117 14.1904C20.9616 14.3236 20.8807 14.4432 20.7757 14.5392C20.6706 14.6353 20.5444 14.7052 20.4072 14.7433C20.27 14.7813 20.1258 14.7864 19.9863 14.7582C19.8467 14.73 19.7158 14.6692 19.6042 14.5808C18.8025 13.9415 17.8068 13.5947 16.7814 13.5977Z" fill="#D1D6E0"/>
<path d="M37.2158 18.1201C38.1281 18.1191 39.0342 18.2704 39.8966 18.568L37.2158 18.1201Z" fill="white"/>
<path d="M39.8976 19.4727C39.797 19.4724 39.6972 19.4556 39.6022 19.4227C38.8349 19.1578 38.0287 19.0232 37.2169 19.0244C36.9771 19.0244 36.747 18.9291 36.5774 18.7595C36.4078 18.5899 36.3125 18.3598 36.3125 18.12C36.3125 17.8801 36.4078 17.65 36.5774 17.4804C36.747 17.3108 36.9771 17.2155 37.2169 17.2155C38.2298 17.2144 39.2356 17.3825 40.1931 17.7128C40.3953 17.7827 40.5662 17.922 40.6754 18.106C40.7846 18.2899 40.8251 18.5067 40.7897 18.7177C40.7543 18.9287 40.6452 19.1203 40.4819 19.2585C40.3186 19.3967 40.1116 19.4726 39.8976 19.4727Z" fill="#D1D6E0"/>
<path d="M11.3545 18.5755C12.2233 18.273 13.1368 18.119 14.0568 18.1201L11.3545 18.5755Z" fill="white"/>
<path d="M11.3558 19.4802C11.142 19.4801 10.9352 19.4044 10.772 19.2665C10.6088 19.1286 10.4996 18.9373 10.4639 18.7266C10.4282 18.5158 10.4682 18.2993 10.5769 18.1153C10.6856 17.9313 10.8559 17.7916 11.0577 17.7212C12.0223 17.3852 13.0366 17.2143 14.0581 17.2155C14.2979 17.2155 14.528 17.3108 14.6976 17.4804C14.8672 17.65 14.9625 17.8801 14.9625 18.12C14.9625 18.3598 14.8672 18.5899 14.6976 18.7595C14.528 18.9291 14.2979 19.0244 14.0581 19.0244C13.2396 19.0231 12.4268 19.16 11.6539 19.4294C11.5581 19.4629 11.4573 19.4801 11.3558 19.4802Z" fill="#D1D6E0"/>
<path d="M20.1289 13.8384C20.7432 14.3152 21.2485 14.9178 21.6109 15.6058L20.1289 13.8384Z" fill="white"/>
<path d="M21.6127 16.5102C21.4477 16.5104 21.2858 16.4654 21.1445 16.3802C21.0032 16.295 20.8879 16.1727 20.8111 16.0267C20.5084 15.4533 20.087 14.9509 19.575 14.5529C19.4809 14.4802 19.4021 14.3896 19.343 14.2864C19.284 14.1831 19.2458 14.0692 19.2308 13.9512C19.2159 13.8332 19.2243 13.7134 19.2557 13.5987C19.287 13.4839 19.3407 13.3765 19.4137 13.2825C19.4866 13.1886 19.5774 13.1099 19.6807 13.0511C19.7841 12.9922 19.8981 12.9544 20.0161 12.9396C20.1341 12.9249 20.2539 12.9336 20.3686 12.9652C20.4833 12.9968 20.5906 13.0507 20.6844 13.1239C21.3999 13.6808 21.9889 14.3833 22.4124 15.185C22.4849 15.3227 22.5206 15.4769 22.516 15.6325C22.5114 15.7881 22.4667 15.9399 22.3863 16.0732C22.3059 16.2064 22.1924 16.3167 22.0569 16.3933C21.9213 16.4699 21.7684 16.5101 21.6127 16.5102Z" fill="#D1D6E0"/>
<path d="M84.9796 15.1031C84.8383 13.7856 85.182 12.4618 85.9465 11.3796C86.7109 10.2973 87.8437 9.53079 89.1326 9.22357C90.4215 8.91635 91.7782 9.08948 92.9487 9.71056C94.1191 10.3316 95.0231 11.358 95.4912 12.5976C95.9186 12.259 96.4326 12.0475 96.9745 11.9872C97.5165 11.9269 98.0644 12.0203 98.5558 12.2566C99.0471 12.4929 99.4621 12.8627 99.7533 13.3237C100.044 13.7847 100.2 14.3184 100.202 14.8636C100.202 14.9473 100.197 15.0295 100.19 15.1113C101.161 15.4472 101.981 16.117 102.504 17.0013C103.027 17.8856 103.22 18.9269 103.047 19.9397C102.874 20.9526 102.347 21.8711 101.56 22.5316C100.773 23.1921 99.7767 23.5517 98.7492 23.5463H86.3975C85.368 23.5516 84.3701 23.1905 83.5824 22.5276C82.7947 21.8646 82.2685 20.943 82.098 19.9277C81.9275 18.9123 82.1237 17.8694 82.6517 16.9855C83.1796 16.1016 84.0048 15.4344 84.9796 15.1031Z" fill="white"/>
<path d="M98.7493 24.4506H86.3975C85.2141 24.4559 84.0638 24.0604 83.1337 23.3286C82.2037 22.5968 81.5487 21.5717 81.2754 20.4203C81.0022 19.2688 81.1266 18.0588 81.6286 16.9871C82.1306 15.9154 82.9806 15.0452 84.0401 14.5181V14.5017C84.0451 13.1065 84.5091 11.7516 85.3607 10.6464C86.2123 9.54112 87.404 8.74692 88.7519 8.38637C90.0998 8.02583 91.5289 8.11899 92.8185 8.65148C94.1082 9.18397 95.1867 10.1262 95.8876 11.3326C96.4372 11.1152 97.0299 11.0284 97.6188 11.079C98.2077 11.1297 98.7768 11.3165 99.2812 11.6246C99.7856 11.9327 100.212 12.3537 100.526 12.8546C100.84 13.3554 101.033 13.9223 101.09 14.5106C102.153 15.0346 103.007 15.9034 103.512 16.9752C104.018 18.0469 104.145 19.2583 103.873 20.4117C103.602 21.5651 102.947 22.5924 102.017 23.326C101.086 24.0595 99.9343 24.4559 98.7493 24.4506ZM90.3938 9.97949C89.7552 9.97424 89.1228 10.1047 88.5384 10.3624C87.954 10.62 87.4311 10.9988 87.0042 11.4738C86.5773 11.9487 86.2562 12.509 86.0621 13.1174C85.8681 13.7258 85.8055 14.3685 85.8786 15.003C85.9015 15.2074 85.854 15.4135 85.7439 15.5872C85.6338 15.761 85.4677 15.892 85.2731 15.9586C84.5008 16.2204 83.847 16.7486 83.4287 17.4486C83.0104 18.1486 82.855 18.9747 82.9902 19.7789C83.1255 20.583 83.5427 21.3127 84.167 21.8373C84.7914 22.3619 85.5821 22.6471 86.3975 22.6417H98.7493C99.5631 22.6471 100.352 22.3632 100.976 21.8405C101.6 21.3179 102.018 20.5907 102.155 19.7885C102.292 18.9864 102.14 18.1616 101.725 17.4613C101.311 16.761 100.661 16.2308 99.8918 15.9653C99.7021 15.899 99.5398 15.7714 99.4307 15.6027C99.3215 15.4339 99.2717 15.2337 99.289 15.0334C99.2938 14.9774 99.2978 14.9208 99.2978 14.8634C99.2954 14.4881 99.1876 14.1211 98.9867 13.8042C98.7858 13.4872 98.4999 13.2331 98.1615 13.0708C97.8232 12.9085 97.446 12.8446 97.0731 12.8863C96.7002 12.928 96.3465 13.0737 96.0523 13.3067C95.9408 13.395 95.8099 13.4558 95.6705 13.484C95.531 13.5123 95.3869 13.5072 95.2497 13.4692C95.1126 13.4312 94.9864 13.3613 94.8814 13.2653C94.7763 13.1693 94.6955 13.0499 94.6453 12.9167C94.3164 12.0549 93.7341 11.313 92.9751 10.7886C92.2162 10.2643 91.3162 9.9822 90.3938 9.97949Z" fill="#D1D6E0"/>
<path d="M86.3974 14.8636C85.9106 14.8631 85.427 14.9439 84.9668 15.1026L86.3974 14.8636Z" fill="white"/>
<path d="M84.9679 16.0072C84.7539 16.0071 84.5469 15.9312 84.3836 15.793C84.2203 15.6547 84.1113 15.4631 84.0759 15.2521C84.0406 15.0411 84.0811 14.8243 84.1904 14.6404C84.2997 14.4565 84.4706 14.3172 84.6729 14.2474C85.2277 14.056 85.8105 13.9585 86.3974 13.959C86.6373 13.959 86.8673 14.0543 87.0369 14.2239C87.2066 14.3935 87.3018 14.6235 87.3018 14.8634C87.3018 15.1033 87.2066 15.3333 87.0369 15.503C86.8673 15.6726 86.6373 15.7679 86.3974 15.7679C86.0113 15.7674 85.6279 15.8314 85.2629 15.9573C85.168 15.9902 85.0683 16.007 84.9679 16.0072Z" fill="#D1D6E0"/>
<path d="M100.191 15.1066C99.7275 14.9452 99.24 14.8631 98.749 14.8636L100.191 15.1066Z" fill="white"/>
<path d="M100.189 16.0112C100.088 16.0112 99.9872 15.994 99.8916 15.9604C99.5239 15.8325 99.1374 15.7674 98.7482 15.7679C98.5083 15.7679 98.2783 15.6726 98.1087 15.503C97.939 15.3333 97.8438 15.1033 97.8438 14.8634C97.8438 14.6235 97.939 14.3935 98.1087 14.2239C98.2783 14.0543 98.5083 13.959 98.7482 13.959C99.3401 13.9583 99.9279 14.0574 100.487 14.2522C100.689 14.3226 100.859 14.4622 100.968 14.6462C101.077 14.8301 101.117 15.0467 101.081 15.2574C101.045 15.4682 100.936 15.6595 100.773 15.7974C100.61 15.9354 100.403 16.0111 100.189 16.0112Z" fill="#D1D6E0"/>
<path d="M95.5106 12.5801C95.1828 12.8345 94.9131 13.1561 94.7197 13.5233L95.5106 12.5801Z" fill="white"/>
<path d="M94.7182 14.4271C94.5625 14.427 94.4095 14.3867 94.274 14.3101C94.1384 14.2335 94.025 14.1233 93.9445 13.99C93.8641 13.8567 93.8194 13.7049 93.8148 13.5493C93.8103 13.3937 93.8459 13.2396 93.9184 13.1018C94.1725 12.6211 94.5258 12.1999 94.9549 11.8661C95.1443 11.719 95.3844 11.6531 95.6223 11.683C95.8602 11.7129 96.0766 11.8361 96.2237 12.0255C96.3708 12.2149 96.4366 12.455 96.4067 12.6929C96.3768 12.9309 96.2536 13.1472 96.0642 13.2943C95.8388 13.4697 95.6532 13.691 95.5197 13.9435C95.4429 14.0896 95.3277 14.2118 95.1864 14.297C95.0451 14.3823 94.8832 14.4273 94.7182 14.4271Z" fill="#D1D6E0"/>
<path d="M81.5057 47.9829C81.1401 46.5906 81.1989 45.1207 81.6747 43.762C82.1505 42.4033 83.0215 41.2178 84.1759 40.3578C85.3304 39.4977 86.7155 39.0023 88.1535 38.9352C89.5915 38.868 91.0168 39.2322 92.2463 39.981C93.395 38.4611 94.9748 37.3222 96.7798 36.7127C98.5849 36.1032 100.532 36.0512 102.367 36.5637C104.202 37.0761 105.84 38.1291 107.068 39.5856C108.296 41.0422 109.057 42.8347 109.252 44.7299C110.769 45.2521 112.052 46.2955 112.872 47.6744C113.693 49.0533 113.997 50.6784 113.732 52.2609C113.467 53.8433 112.649 55.2804 111.425 56.3167C110.2 57.353 108.647 57.9213 107.042 57.9206L81.7171 57.9208C80.4165 57.9215 79.1674 57.4125 78.2378 56.503C77.3081 55.5934 76.7719 54.3557 76.7443 53.0554C76.7166 51.7551 77.1997 50.4957 78.0898 49.5474C78.98 48.5992 80.2063 48.0375 81.5057 47.9829Z" fill="white"/>
<path d="M81.5066 45.2701C81.4633 45.1031 81.4379 44.9294 81.4053 44.7582C81.3705 44.9349 81.3449 45.1148 81.3232 45.296C81.3856 45.291 81.4437 45.2729 81.5066 45.2701Z" fill="white"/>
<path d="M81.7173 58.8254C80.2703 58.8258 78.8739 58.2924 77.7958 57.3272C76.7176 56.3619 76.0335 55.0329 75.8745 53.5946C75.7155 52.1563 76.0927 50.7099 76.934 49.5324C77.7752 48.355 79.0213 47.5294 80.4335 47.2137C80.386 46.8654 80.362 46.5142 80.3615 46.1627C80.3596 44.7861 80.7072 43.4315 81.372 42.226C82.0367 41.0206 82.9968 40.0037 84.162 39.2708C85.3273 38.5379 86.6597 38.1129 88.0341 38.0358C89.4086 37.9587 90.7801 38.2319 92.02 38.8299C93.3243 37.3502 95.0228 36.2723 96.917 35.7221C98.8113 35.172 100.823 35.1723 102.717 35.723C104.611 36.2737 106.309 37.3521 107.613 38.8322C108.917 40.3123 109.773 42.1329 110.08 44.0813C111.706 44.7799 113.04 46.0181 113.859 47.5868C114.677 49.1554 114.929 50.9585 114.572 52.6914C114.215 54.4243 113.271 55.9809 111.899 57.0984C110.527 58.2158 108.812 58.8257 107.043 58.8249L81.7173 58.8254ZM88.5011 39.832C87.533 39.8281 86.577 40.0472 85.7072 40.4723C84.8375 40.8974 84.0772 41.5171 83.4855 42.2833C82.8937 43.0495 82.4863 43.9416 82.2949 44.8906C82.1035 45.8396 82.1331 46.8199 82.3815 47.7556C82.4154 47.8862 82.4197 48.0227 82.394 48.1552C82.3683 48.2876 82.3133 48.4127 82.233 48.5211C82.1528 48.6296 82.0492 48.7187 81.93 48.7819C81.8108 48.8452 81.679 48.8809 81.5442 48.8866C80.4811 48.9312 79.4778 49.3907 78.7496 50.1665C78.0213 50.9422 77.6262 51.9725 77.6488 53.0363C77.6715 54.1001 78.1101 55.1127 78.8707 55.8568C79.6314 56.6008 80.6533 57.0172 81.7173 57.0165L107.043 57.016C108.433 57.0168 109.779 56.5243 110.84 55.6262C111.902 54.7282 112.611 53.4827 112.84 52.1113C113.07 50.74 112.806 49.3315 112.095 48.1366C111.384 46.9416 110.272 46.0375 108.958 45.585C108.795 45.5288 108.651 45.4271 108.544 45.292C108.437 45.1569 108.371 44.9939 108.353 44.8223C108.176 43.1077 107.488 41.486 106.376 40.1684C105.265 38.8507 103.783 37.8982 102.123 37.4347C100.462 36.9713 98.7011 37.0185 97.0681 37.5701C95.4351 38.1218 94.0059 39.1523 92.9668 40.5276C92.8315 40.7056 92.6351 40.8272 92.4154 40.869C92.1957 40.9108 91.9684 40.8699 91.7771 40.7541C90.7901 40.1527 89.6569 39.8338 88.5011 39.832Z" fill="#D1D6E0"/>
<path d="M108.839 49.5544C108.697 49.5542 108.556 49.5203 108.429 49.4554C108.302 49.3905 108.192 49.2965 108.108 49.181C108.024 49.0655 107.969 48.9319 107.946 48.7909C107.924 48.6499 107.935 48.5057 107.979 48.3699C108.397 47.0801 108.504 45.7097 108.292 44.3705C108.079 43.0314 107.553 41.7614 106.756 40.6644C105.96 39.5673 104.915 38.6742 103.707 38.058C102.499 37.4418 101.163 37.1199 99.8068 37.1186C99.5669 37.1186 99.3369 37.0234 99.1672 36.8537C98.9976 36.6841 98.9023 36.4541 98.9023 36.2142C98.9023 35.9743 98.9976 35.7443 99.1672 35.5747C99.3369 35.405 99.5669 35.3098 99.8068 35.3098C101.448 35.3111 103.066 35.7006 104.528 36.4465C105.99 37.1923 107.255 38.2733 108.22 39.6013C109.184 40.9293 109.821 42.4666 110.078 44.0877C110.336 45.7088 110.206 47.3677 109.7 48.929C109.641 49.1107 109.526 49.269 109.371 49.3814C109.216 49.4937 109.03 49.5542 108.839 49.5544Z" fill="#D1D6E0"/>
<path d="M84.9943 50.1082C84.7753 50.1084 84.5636 50.0288 84.399 49.8842C83.657 49.2344 82.7042 48.8764 81.7179 48.8769C81.478 48.8769 81.248 48.7816 81.0784 48.612C80.9088 48.4424 80.8135 48.2123 80.8135 47.9725C80.8135 47.7326 80.9088 47.5025 81.0784 47.3329C81.248 47.1633 81.478 47.068 81.7179 47.068C83.1425 47.0675 84.5188 47.5846 85.5905 48.5232C85.729 48.6444 85.8272 48.8049 85.872 48.9834C85.9169 49.1619 85.9062 49.3499 85.8414 49.5221C85.7766 49.6944 85.6608 49.8428 85.5094 49.9475C85.3581 50.0522 85.1784 50.1082 84.9943 50.1082Z" fill="#D1D6E0"/>
<path d="M94.3849 42.8545C94.2411 42.8547 94.0993 42.8206 93.9714 42.755C93.8434 42.6894 93.7329 42.5942 93.6491 42.4773C93.062 41.66 92.2891 40.9939 91.394 40.534C90.499 40.0741 89.5074 39.8335 88.5011 39.832C88.2613 39.832 88.0312 39.7367 87.8616 39.5671C87.692 39.3975 87.5967 39.1674 87.5967 38.9275C87.5967 38.6877 87.692 38.4576 87.8616 38.288C88.0312 38.1184 88.2613 38.0231 88.5011 38.0231C89.7947 38.0249 91.0692 38.3341 92.2198 38.9251C93.3704 39.5162 94.3641 40.3723 95.1189 41.4227C95.2158 41.5578 95.2736 41.717 95.286 41.8828C95.2983 42.0486 95.2647 42.2146 95.1889 42.3626C95.113 42.5106 94.9979 42.6348 94.856 42.7215C94.7142 42.8083 94.5512 42.8543 94.3849 42.8545Z" fill="#D1D6E0"/>
<path d="M109.759 73.3208C109.698 73.3194 109.638 73.3133 109.578 73.3027C109.524 73.2846 109.46 73.2666 109.406 73.2484C109.352 73.2215 109.307 73.1941 109.252 73.1672C109.205 73.1306 109.16 73.0913 109.117 73.0497C109.033 72.9672 108.966 72.8686 108.921 72.7598C108.876 72.651 108.853 72.5342 108.855 72.4164C108.853 72.2958 108.874 72.176 108.918 72.0635C108.965 71.9553 109.033 71.8571 109.117 71.7743C109.16 71.7326 109.205 71.6934 109.252 71.6568C109.307 71.6294 109.352 71.6025 109.406 71.5751C109.462 71.556 109.52 71.5409 109.578 71.5301C109.694 71.5031 109.815 71.5031 109.931 71.5301C109.989 71.5398 110.047 71.5548 110.103 71.5751C110.157 71.6025 110.211 71.6294 110.257 71.6568C110.308 71.6888 110.353 71.7284 110.392 71.7743C110.479 71.8545 110.547 71.9534 110.591 72.0635C110.638 72.1754 110.662 72.2952 110.663 72.4164C110.663 72.5347 110.639 72.6518 110.592 72.7606C110.546 72.8693 110.478 72.9677 110.392 73.0497C110.353 73.0955 110.308 73.1351 110.257 73.1672C110.211 73.1941 110.157 73.2215 110.103 73.2484C110.048 73.2665 109.994 73.2846 109.931 73.3027C109.874 73.3133 109.817 73.3194 109.759 73.3208Z" fill="white"/>
<path d="M107.945 76.9355H102.519C102.279 76.9355 102.049 76.8402 101.879 76.6706C101.71 76.501 101.614 76.271 101.614 76.0311C101.614 75.7912 101.71 75.5612 101.879 75.3915C102.049 75.2219 102.279 75.1266 102.519 75.1266H107.945C108.185 75.1266 108.415 75.2219 108.585 75.3915C108.755 75.5612 108.85 75.7912 108.85 76.0311C108.85 76.271 108.755 76.501 108.585 76.6706C108.415 76.8402 108.185 76.9355 107.945 76.9355Z" fill="white"/>
<path d="M106.135 73.3173H99.8048C99.565 73.3173 99.3349 73.222 99.1653 73.0524C98.9957 72.8828 98.9004 72.6527 98.9004 72.4128C98.9004 72.173 98.9957 71.9429 99.1653 71.7733C99.3349 71.6037 99.565 71.5084 99.8048 71.5084H106.135C106.375 71.5084 106.605 71.6037 106.775 71.7733C106.944 71.9429 107.04 72.173 107.04 72.4128C107.04 72.6527 106.944 72.8828 106.775 73.0524C106.605 73.222 106.375 73.3173 106.135 73.3173Z" fill="white"/>
<path d="M98.8999 76.9351H97.0919C96.8521 76.9351 96.622 76.8398 96.4524 76.6702C96.2828 76.5005 96.1875 76.2705 96.1875 76.0306C96.1875 75.7907 96.2828 75.5607 96.4524 75.3911C96.622 75.2215 96.8521 75.1262 97.0919 75.1262H98.8999C99.1398 75.1262 99.3699 75.2215 99.5395 75.3911C99.7091 75.5607 99.8044 75.7907 99.8044 76.0306C99.8044 76.2705 99.7091 76.5005 99.5395 76.6702C99.3699 76.8398 99.1398 76.9351 98.8999 76.9351Z" fill="white"/>
<path d="M106.136 80.5538H98.8996C98.6597 80.5538 98.4296 80.4585 98.26 80.2888C98.0904 80.1192 97.9951 79.8892 97.9951 79.6493C97.9951 79.4094 98.0904 79.1794 98.26 79.0098C98.4296 78.8402 98.6597 78.7449 98.8996 78.7449H106.136C106.375 78.7449 106.605 78.8402 106.775 79.0098C106.945 79.1794 107.04 79.4094 107.04 79.6493C107.04 79.8892 106.945 80.1192 106.775 80.2888C106.605 80.4585 106.375 80.5538 106.136 80.5538Z" fill="white"/>
<path d="M13.8781 66.0764C13.7576 66.0775 13.6379 66.0559 13.5253 66.0128C13.4152 65.9691 13.3163 65.9012 13.236 65.8141C13.0679 65.6444 12.9736 65.4152 12.9736 65.1764C12.9736 64.9376 13.0679 64.7084 13.236 64.5387C13.3163 64.4515 13.4151 64.3834 13.5252 64.3395C13.6912 64.2739 13.8726 64.2578 14.0476 64.2931C14.2225 64.3285 14.3835 64.4138 14.5109 64.5387C14.5963 64.6207 14.6643 64.719 14.711 64.8278C14.7577 64.9365 14.782 65.0536 14.7826 65.172C14.7821 65.2916 14.7578 65.41 14.7112 65.5203C14.6646 65.6305 14.5965 65.7304 14.511 65.8141C14.4286 65.8982 14.3301 65.9648 14.2213 66.0098C14.1126 66.0549 13.9958 66.0775 13.8781 66.0764Z" fill="white"/>
<path d="M14.7774 62.463H12.9689C12.729 62.463 12.499 62.3677 12.3294 62.1981C12.1597 62.0285 12.0645 61.7985 12.0645 61.5586C12.0645 61.3187 12.1597 61.0887 12.3294 60.919C12.499 60.7494 12.729 60.6541 12.9689 60.6541H14.7774C15.0172 60.6541 15.2473 60.7494 15.4169 60.919C15.5865 61.0887 15.6818 61.3187 15.6818 61.5586C15.6818 61.7985 15.5865 62.0285 15.4169 62.1981C15.2473 62.3677 15.0172 62.463 14.7774 62.463Z" fill="white"/>
<path d="M17.491 58.8444H8.44742C8.20754 58.8444 7.97749 58.7491 7.80788 58.5795C7.63826 58.4099 7.54297 58.1798 7.54297 57.9399C7.54297 57.7001 7.63826 57.47 7.80788 57.3004C7.97749 57.1308 8.20754 57.0355 8.44742 57.0355H17.491C17.7309 57.0355 17.9609 57.1308 18.1305 57.3004C18.3001 57.47 18.3954 57.7001 18.3954 57.9399C18.3954 58.1798 18.3001 58.4099 18.1305 58.5795C17.9609 58.7491 17.7309 58.8444 17.491 58.8444Z" fill="white"/>
<path d="M9.35043 62.4622H5.73355C5.49367 62.4622 5.26362 62.3669 5.09401 62.1972C4.92439 62.0276 4.8291 61.7976 4.8291 61.5577C4.8291 61.3178 4.92439 61.0878 5.09401 60.9182C5.26362 60.7486 5.49367 60.6533 5.73355 60.6533H9.35043C9.59031 60.6533 9.82036 60.7486 9.98997 60.9182C10.1596 61.0878 10.2549 61.3178 10.2549 61.5577C10.2549 61.7976 10.1596 62.0276 9.98997 62.1972C9.82036 62.3669 9.59031 62.4622 9.35043 62.4622Z" fill="white"/>
<path d="M10.2547 66.0813H3.0187C2.77883 66.0813 2.54878 65.986 2.37916 65.8164C2.20955 65.6467 2.11426 65.4167 2.11426 65.1768C2.11426 64.9369 2.20955 64.7069 2.37916 64.5373C2.54878 64.3677 2.77883 64.2724 3.0187 64.2724H10.2547C10.4946 64.2724 10.7246 64.3677 10.8943 64.5373C11.0639 64.7069 11.1592 64.9369 11.1592 65.1768C11.1592 65.4167 11.0639 65.6467 10.8943 65.8164C10.7246 65.986 10.4946 66.0813 10.2547 66.0813Z" fill="white"/>
<path d="M71.7675 109.473H48.2502C48.0103 109.473 47.7802 109.377 47.6106 109.208C47.441 109.038 47.3457 108.808 47.3457 108.568C47.3457 108.328 47.441 108.098 47.6106 107.929C47.7802 107.759 48.0103 107.664 48.2502 107.664H71.7676C72.0075 107.664 72.2375 107.759 72.4071 107.929C72.5767 108.098 72.672 108.328 72.672 108.568C72.672 108.808 72.5767 109.038 72.4071 109.208C72.2375 109.377 72.0074 109.473 71.7675 109.473Z" fill="#D1D6E0"/>
<path d="M76.2891 109.473H74.4806C74.2407 109.473 74.0107 109.377 73.8411 109.208C73.6715 109.038 73.5762 108.808 73.5762 108.568C73.5762 108.328 73.6715 108.098 73.8411 107.929C74.0107 107.759 74.2407 107.664 74.4806 107.664H76.2891C76.5289 107.664 76.759 107.759 76.9286 107.929C77.0982 108.098 77.1935 108.328 77.1935 108.568C77.1935 108.808 77.0982 109.038 76.9286 109.208C76.759 109.377 76.5289 109.473 76.2891 109.473Z" fill="#D1D6E0"/>
<path d="M41.9173 109.473H38.3C38.0601 109.473 37.83 109.377 37.6604 109.208C37.4908 109.038 37.3955 108.808 37.3955 108.568C37.3955 108.328 37.4908 108.098 37.6604 107.929C37.83 107.759 38.0601 107.664 38.3 107.664H41.9173C42.1572 107.664 42.3872 107.759 42.5568 107.929C42.7265 108.098 42.8217 108.328 42.8217 108.568C42.8217 108.808 42.7265 109.038 42.5568 109.208C42.3872 109.377 42.1572 109.473 41.9173 109.473Z" fill="#D1D6E0"/>
<path d="M45.536 109.473H44.632C44.3921 109.473 44.1621 109.377 43.9924 109.208C43.8228 109.038 43.7275 108.808 43.7275 108.568C43.7275 108.328 43.8228 108.098 43.9924 107.929C44.1621 107.759 44.3921 107.664 44.632 107.664H45.536C45.7759 107.664 46.0059 107.759 46.1755 107.929C46.3452 108.098 46.4404 108.328 46.4404 108.568C46.4404 108.808 46.3452 109.038 46.1755 109.208C46.0059 109.377 45.7759 109.473 45.536 109.473Z" fill="#D1D6E0"/>
<path d="M90.7552 34.6064L57.2924 21.7432L23.8262 34.6064V64.1315C23.8262 69.9525 25.164 75.6957 27.7362 80.9175C30.3085 86.1394 34.0465 90.7002 38.6615 94.2479L57.2924 108.57L75.9214 94.2479C80.536 90.7002 84.2736 86.1395 86.8456 80.9178C89.4176 75.6962 90.7553 69.9533 90.7552 64.1325V34.6064Z" fill="white"/>
<path d="M57.2926 109.474C57.0933 109.475 56.8995 109.409 56.7415 109.287L38.1107 94.9652C33.3993 91.3206 29.582 86.6486 26.9498 81.3052C24.3176 75.9618 22.94 70.088 22.9219 64.1315V34.6062C22.9218 34.4234 22.9772 34.2448 23.0807 34.094C23.1843 33.9433 23.331 33.8275 23.5017 33.7618L56.9681 20.8986C57.177 20.8183 57.4083 20.8183 57.6173 20.8986L91.08 33.7618C91.2507 33.8275 91.3975 33.9433 91.501 34.094C91.6045 34.2448 91.6599 34.4234 91.6599 34.6062V64.1324C91.6418 70.0886 90.2643 75.9621 87.6325 81.3053C85.0006 86.6486 81.1838 91.3205 76.4728 94.9653L57.8438 109.287C57.6858 109.409 57.492 109.475 57.2926 109.474ZM24.7308 35.2276V64.1315C24.748 69.8109 26.0616 75.4114 28.5713 80.5063C31.081 85.6011 34.7207 90.0558 39.213 93.5309L57.2926 107.429L75.3705 93.5309C79.8623 90.0557 83.5015 85.6011 86.011 80.5064C88.5204 75.4117 89.8337 69.8115 89.851 64.1324V35.2276L57.2926 22.712L24.7308 35.2276Z" fill="#016AAE"/>
<path d="M30.1572 38.9554V64.1315C30.172 68.9798 31.2933 73.7607 33.4357 78.11C35.5782 82.4593 38.6852 86.2621 42.52 89.2286L57.2924 100.584L72.0625 89.229C75.897 86.2624 79.0038 82.4596 81.146 78.1104C83.2882 73.7613 84.4094 68.9805 84.424 64.1324V38.9554L57.2924 28.5259L30.1572 38.9554Z" fill="#016AAE"/>
<path d="M57.2926 101.488C57.0932 101.489 56.8994 101.423 56.7414 101.301L41.9691 89.9458C38.0246 86.8945 34.8288 82.983 32.6251 78.5095C30.4214 74.0359 29.2681 69.1183 29.2529 64.1315V38.9553C29.2529 38.7725 29.3083 38.5939 29.4118 38.4432C29.5153 38.2924 29.6621 38.1766 29.8328 38.111L56.968 27.6816C57.1769 27.6012 57.4082 27.6012 57.6172 27.6816L84.7488 38.111C84.9195 38.1766 85.0662 38.2924 85.1698 38.4432C85.2733 38.5939 85.3287 38.7725 85.3286 38.9553V64.1324C85.3136 69.119 84.1604 74.0364 81.9569 78.5099C79.7535 82.9834 76.5579 86.8948 72.6138 89.9462L57.8437 101.301C57.6857 101.423 57.4919 101.489 57.2926 101.488ZM31.0618 39.5767V64.1315C31.0761 68.8412 32.1654 73.4856 34.2466 77.7105C36.3278 81.9355 39.3461 85.6296 43.0714 88.5114L57.2926 99.4433L71.5115 88.5118C75.2364 85.6299 78.2544 81.9358 80.3354 77.7109C82.4163 73.4861 83.5055 68.8419 83.5197 64.1324V39.5767L57.2926 29.4948L31.0618 39.5767Z" fill="white"/>
<path d="M75.3539 49.0233C75.3102 48.7164 75.2055 48.4213 75.046 48.1555C74.8865 47.8896 74.6755 47.6583 74.4253 47.4752L74.4233 47.4736C73.9301 47.1132 73.3172 46.9562 72.7114 47.0352C72.1056 47.1142 71.5534 47.4231 71.1691 47.898L54.6806 65.179L46.7279 60.9739C45.1894 60.2446 44.3824 60.2252 43.508 61.104C43.2872 61.3231 43.1125 61.5842 42.9941 61.8718C42.8757 62.1594 42.816 62.4678 42.8184 62.7789C42.8159 63.3831 43.053 63.9637 43.4777 64.3935L53.0564 75.12C53.6017 75.6554 54.3361 75.9544 55.1004 75.9521L55.315 75.9437C55.7319 75.9135 56.1374 75.794 56.5041 75.5934C56.8708 75.3928 57.1901 75.1158 57.4404 74.7812L74.9058 50.7636C75.0926 50.518 75.2286 50.2376 75.3055 49.9387C75.3825 49.6399 75.3989 49.3286 75.3539 49.0233Z" fill="white"/>
<path d="M101.906 45.284C102.146 46.072 102.576 46.7888 103.158 47.3712C103.741 47.9536 104.458 48.3837 105.246 48.6235C106.915 49.1801 106.915 49.7367 105.246 50.2933C104.458 50.5331 103.741 50.9632 103.158 51.5456C102.576 52.128 102.146 52.8449 101.906 53.6328C101.349 55.3025 100.793 55.3025 100.236 53.6328C99.9965 52.8448 99.5664 52.128 98.984 51.5456C98.4016 50.9632 97.6848 50.5331 96.8968 50.2933C95.2271 49.7367 95.2271 49.1801 96.8968 48.6235C97.6848 48.3837 98.4016 47.9537 98.984 47.3712C99.5664 46.7888 99.9965 46.072 100.236 45.284C100.793 43.6143 101.35 43.6143 101.906 45.284Z" fill="#75859E"/>
<path d="M71.7788 10.4943C71.9387 11.0196 72.2254 11.4975 72.6137 11.8858C73.002 12.274 73.4799 12.5608 74.0052 12.7207C75.1183 13.0917 75.1183 13.4627 74.0052 13.8338C73.4799 13.9937 73.002 14.2804 72.6137 14.6687C72.2254 15.057 71.9387 15.5348 71.7788 16.0602C71.4078 17.1734 71.0368 17.1734 70.6657 16.0602C70.5058 15.5348 70.2191 15.057 69.8308 14.6687C69.4425 14.2804 68.9646 13.9937 68.4393 13.8338C67.3262 13.4628 67.3262 13.0917 68.4393 12.7207C68.9646 12.5608 69.4425 12.274 69.8308 11.8858C70.2191 11.4975 70.5058 11.0196 70.6657 10.4943C71.0367 9.38119 71.4077 9.38119 71.7788 10.4943Z" fill="#75859E"/>
<path d="M16.7424 42.3616C16.9423 43.0182 17.3007 43.6156 17.786 44.1009C18.2713 44.5863 18.8687 44.9447 19.5253 45.1446C20.9167 45.6084 20.9167 46.0722 19.5253 46.536C18.8687 46.7358 18.2713 47.0943 17.786 47.5796C17.3007 48.065 16.9423 48.6623 16.7424 49.319C16.2785 50.7104 15.8147 50.7104 15.3509 49.319C15.1511 48.6623 14.7927 48.065 14.3073 47.5796C13.822 47.0943 13.2247 46.7358 12.568 46.536C11.1765 46.0722 11.1765 45.6084 12.568 45.1446C13.2247 44.9447 13.822 44.5863 14.3073 44.1009C14.7927 43.6156 15.1511 43.0182 15.3509 42.3616C15.8147 40.9702 16.2786 40.9702 16.7424 42.3616Z" fill="#75859E"/>
<path d="M7.55621 85.5709C7.71608 86.0962 8.00281 86.5741 8.39108 86.9624C8.77936 87.3507 9.25724 87.6374 9.78256 87.7973C10.8957 88.1683 10.8957 88.5393 9.78256 88.9104C9.25724 89.0703 8.77936 89.357 8.39108 89.7453C8.00281 90.1336 7.71608 90.6115 7.55621 91.1368C7.18516 92.25 6.81411 92.25 6.44304 91.1368C6.28317 90.6115 5.99644 90.1336 5.60817 89.7453C5.2199 89.357 4.74203 89.0703 4.21672 88.9104C3.10354 88.5394 3.10354 88.1684 4.21672 87.7973C4.74203 87.6374 5.2199 87.3507 5.60817 86.9624C5.99644 86.5741 6.28317 86.0962 6.44304 85.5709C6.81414 84.4578 7.18519 84.4578 7.55621 85.5709Z" fill="#75859E"/>
<path d="M21.1245 91.9027C21.2844 92.428 21.5711 92.9059 21.9594 93.2942C22.3477 93.6824 22.8256 93.9692 23.3509 94.1291C24.4639 94.5001 24.4639 94.8711 23.3509 95.2422C22.8256 95.4021 22.3477 95.6888 21.9594 96.0771C21.5711 96.4654 21.2844 96.9432 21.1245 97.4686C20.7535 98.5817 20.3825 98.5817 20.0114 97.4686C19.8515 96.9432 19.5648 96.4654 19.1765 96.0771C18.7882 95.6888 18.3103 95.4021 17.785 95.2422C16.6719 94.8712 16.6719 94.5001 17.785 94.1291C18.3103 93.9692 18.7882 93.6824 19.1765 93.2942C19.5648 92.9059 19.8515 92.428 20.0114 91.9027C20.3824 90.7896 20.7534 90.7896 21.1245 91.9027Z" fill="#75859E"/>
<path d="M100.723 90.9979C100.883 91.5232 101.17 92.001 101.558 92.3893C101.946 92.7775 102.424 93.0643 102.95 93.2242C104.063 93.5953 104.063 93.9663 102.95 94.3374C102.424 94.4973 101.946 94.784 101.558 95.1723C101.17 95.5605 100.883 96.0384 100.723 96.5637C100.352 97.6769 99.9811 97.6769 99.61 96.5637C99.4501 96.0384 99.1634 95.5605 98.7752 95.1722C98.3869 94.784 97.909 94.4972 97.3837 94.3374C96.2705 93.9663 96.2705 93.5952 97.3837 93.2242C97.909 93.0643 98.3869 92.7776 98.7752 92.3893C99.1634 92.0011 99.4501 91.5232 99.61 90.9979C99.9811 89.8847 100.352 89.8847 100.723 90.9979Z" fill="#75859E"/>
</svg>
