<svg width="114" height="110" viewBox="0 0 114 110" fill="none" xmlns="http://www.w3.org/2000/svg">
<path d="M113.557 41.0067C112.757 35.497 110.284 30.3657 106.474 26.3065C102.663 22.2473 97.698 19.4558 92.2497 18.3094C88.3806 17.4843 84.8954 15.3967 82.342 12.3749C78.3318 7.6398 73.0868 4.10985 67.1903 2.1777C61.2937 0.245553 54.9767 -0.0130464 48.942 1.43066C42.9072 2.87437 37.3912 5.9638 33.0075 10.3553C28.6237 14.7468 25.5441 20.2683 24.1111 26.3056C23.4527 28.9578 22.2311 31.4371 20.5294 33.5753C18.8278 35.7134 16.6859 37.4603 14.2492 38.6972C1.4141 45.3659 -5.01628 62.6756 6.68213 78.9196C8.20817 80.8513 10.1849 82.379 12.4389 83.3688C16.5823 85.4156 19.8182 88.9281 21.5191 93.2251C22.9804 96.8062 25.2277 100.013 28.095 102.609C30.9622 105.205 34.376 107.124 38.0842 108.223C41.7925 109.322 45.7004 109.574 49.5191 108.961C53.3379 108.347 56.97 106.883 60.147 104.677C62.3134 103.164 64.7836 102.142 67.3854 101.682C69.9872 101.221 72.6582 101.333 75.2122 102.01C79.5436 103.191 84.1051 103.242 88.4619 102.159C92.8187 101.077 96.8256 98.8959 100.1 95.8251C103.375 92.7543 105.809 88.8958 107.169 84.6176C108.53 80.3393 108.772 75.7839 107.872 71.3857C107.026 66.9824 107.836 62.4219 110.146 58.5789C113.245 53.2788 114.448 47.0815 113.557 41.0067Z" fill="#D1D6E0"/>
<path d="M31.4361 11.555C31.6308 9.73985 31.1572 7.91598 30.104 6.4249C29.0508 4.93382 27.4902 3.87778 25.7144 3.45451C23.9386 3.03124 22.0694 3.26978 20.4568 4.12545C18.8442 4.98113 17.5988 6.39527 16.9538 8.10306C16.365 7.63658 15.6568 7.34515 14.9102 7.26207C14.1636 7.17898 13.4087 7.3076 12.7317 7.63322C12.0547 7.95883 11.483 8.46832 11.0818 9.10347C10.6807 9.73861 10.4662 10.4738 10.4631 11.225C10.4631 11.3402 10.4708 11.4536 10.4804 11.5663C9.1426 12.0291 8.01258 12.9519 7.29171 14.1702C6.57084 15.3885 6.30596 16.8232 6.54427 18.2186C6.78258 19.614 7.50859 20.8795 8.59294 21.7895C9.67729 22.6995 11.0495 23.1949 12.4651 23.1875H29.4826C30.901 23.1949 32.2759 22.6974 33.3611 21.784C34.4464 20.8706 35.1713 19.6009 35.4062 18.202C35.6412 16.8031 35.3708 15.3663 34.6434 14.1485C33.916 12.9307 32.7791 12.0114 31.4361 11.555Z" fill="white"/>
<path d="M29.4825 24.0938H12.4651C10.8927 24.1011 9.36521 23.5697 8.13696 22.5878C6.90872 21.606 6.05385 20.2331 5.71469 18.6977C5.37553 17.1622 5.57255 15.557 6.27295 14.1491C6.97334 12.7413 8.13485 11.6159 9.56406 10.9602C9.61076 10.1587 9.85309 9.38085 10.2699 8.69464C10.6867 8.00844 11.2652 7.43478 11.9549 7.02383C12.6446 6.61288 13.4245 6.37714 14.2264 6.33723C15.0282 6.29733 15.8277 6.45446 16.5548 6.79491C17.4371 5.14226 18.8457 3.83135 20.5575 3.06996C22.2692 2.30857 24.1861 2.14024 26.0043 2.59167C27.8226 3.04309 29.4381 4.08843 30.595 5.56202C31.7518 7.03561 32.3838 8.85314 32.3907 10.7266C32.3907 10.8049 32.3893 10.8832 32.3871 10.9611C33.8157 11.6175 34.9764 12.7433 35.676 14.1512C36.3756 15.5591 36.5721 17.1641 36.2325 18.6991C35.893 20.2342 35.0381 21.6067 33.81 22.5882C32.5819 23.5697 31.0547 24.101 29.4825 24.0938ZM14.467 8.14366C13.648 8.14243 12.8619 8.46613 12.2812 9.04376C11.7005 9.62138 11.3726 10.4058 11.3695 11.2248C11.3695 11.3142 11.3756 11.4014 11.3832 11.4885C11.4006 11.6892 11.3507 11.8899 11.2413 12.059C11.1319 12.228 10.9693 12.3559 10.7792 12.4222C9.64345 12.8144 8.684 13.5973 8.07198 14.6313C7.45995 15.6652 7.23515 16.883 7.43768 18.0673C7.64021 19.2516 8.25689 20.3255 9.17772 21.0973C10.0985 21.8691 11.2636 22.2887 12.4651 22.2812H29.4825C30.6864 22.2886 31.8537 21.8671 32.7752 21.0924C33.6968 20.3177 34.3125 19.2402 34.5122 18.053C34.7119 16.8657 34.4825 15.6461 33.865 14.6126C33.2476 13.579 32.2824 12.799 31.1424 12.4121C30.9475 12.3453 30.7813 12.2142 30.6709 12.0403C30.5605 11.8664 30.5127 11.6601 30.5353 11.4554C30.7056 9.85972 30.2886 8.25667 29.3624 6.94626C28.4361 5.63586 27.064 4.70791 25.503 4.33609C23.9419 3.96427 22.2989 4.17407 20.8814 4.92622C19.4638 5.67838 18.369 6.92133 17.8017 8.42244C17.7515 8.55584 17.6704 8.67549 17.5652 8.77167C17.4599 8.86785 17.3335 8.93785 17.1961 8.97596C17.0588 9.01408 16.9143 9.01924 16.7746 8.99103C16.6349 8.96282 16.5037 8.90204 16.3919 8.81361C15.8451 8.37806 15.1661 8.14176 14.467 8.14366Z" fill="#D1D6E0"/>
<path d="M29.4824 11.225C30.1528 11.2243 30.8185 11.3355 31.4522 11.5541L29.4824 11.225Z" fill="white"/>
<path d="M31.452 12.4607C31.3512 12.4606 31.2512 12.4437 31.156 12.4107C30.6177 12.2247 30.052 12.1302 29.4824 12.1311C29.2421 12.1311 29.0116 12.0356 28.8416 11.8656C28.6717 11.6957 28.5762 11.4652 28.5762 11.2248C28.5762 10.9845 28.6717 10.754 28.8416 10.584C29.0116 10.414 29.2421 10.3186 29.4824 10.3186C30.2535 10.3177 31.0192 10.4457 31.748 10.6974C31.9507 10.7674 32.1219 10.907 32.2313 11.0914C32.3408 11.2757 32.3814 11.4929 32.3459 11.7043C32.3104 11.9157 32.2011 12.1077 32.0375 12.2462C31.8738 12.3847 31.6664 12.4607 31.452 12.4607Z" fill="#D1D6E0"/>
<path d="M10.4795 11.5596C11.1179 11.3373 11.7891 11.2242 12.4651 11.225L10.4795 11.5596Z" fill="white"/>
<path d="M10.4796 12.4665C10.2655 12.4664 10.0583 12.3906 9.8947 12.2524C9.73113 12.1142 9.62177 11.9225 9.58599 11.7114C9.55021 11.5002 9.59032 11.2833 9.69921 11.0989C9.80811 10.9145 9.97876 10.7746 10.1809 10.704C10.9153 10.4481 11.6875 10.3178 12.4651 10.3186C12.7055 10.3186 12.936 10.414 13.106 10.584C13.2759 10.754 13.3714 10.9845 13.3714 11.2248C13.3714 11.4652 13.2759 11.6957 13.106 11.8656C12.936 12.0356 12.7055 12.1311 12.4651 12.1311C11.8908 12.1303 11.3205 12.2265 10.7783 12.4156C10.6823 12.4493 10.5813 12.4665 10.4796 12.4665Z" fill="#D1D6E0"/>
<path d="M16.9268 8.07887C17.3782 8.42919 17.7494 8.87197 18.0157 9.37752L16.9268 8.07887Z" fill="white"/>
<path d="M18.0173 10.2836C17.852 10.2838 17.6897 10.2387 17.5482 10.1533C17.4066 10.0679 17.2911 9.94541 17.2142 9.79908C17.0077 9.40842 16.7205 9.06616 16.3716 8.79503C16.2773 8.72215 16.1983 8.63138 16.1391 8.52792C16.08 8.42446 16.0418 8.31034 16.0268 8.19211C16.0117 8.07387 16.0202 7.95383 16.0516 7.83886C16.083 7.72389 16.1368 7.61625 16.2099 7.5221C16.283 7.42795 16.374 7.34914 16.4775 7.29018C16.5811 7.23122 16.6953 7.19327 16.8136 7.1785C16.9319 7.16373 17.0519 7.17243 17.1668 7.2041C17.2817 7.23578 17.3892 7.2898 17.4832 7.36309C18.0361 7.7934 18.4913 8.33623 18.8187 8.95567C18.8913 9.09372 18.927 9.24818 18.9224 9.40409C18.9178 9.56 18.8731 9.71209 18.7925 9.84564C18.7119 9.97918 18.5982 10.0897 18.4624 10.1664C18.3266 10.2431 18.1733 10.2835 18.0173 10.2836Z" fill="#D1D6E0"/>
<path d="M83.6421 13.3743C83.4827 11.8892 83.8702 10.3969 84.7319 9.17694C85.5937 7.95697 86.8705 7.09293 88.3235 6.74663C89.7764 6.40032 91.3057 6.59549 92.6251 7.2956C93.9445 7.99571 94.9634 9.15274 95.4911 10.55C95.9729 10.1683 96.5523 9.92989 97.1632 9.8619C97.774 9.79391 98.3917 9.89913 98.9456 10.1655C99.4995 10.432 99.9673 10.8488 100.296 11.3685C100.624 11.8881 100.799 12.4897 100.802 13.1043C100.802 13.1985 100.795 13.2913 100.787 13.3836C101.882 13.7622 102.807 14.5172 103.396 15.514C103.986 16.5108 104.203 17.6847 104.008 18.8264C103.813 19.9681 103.219 21.0034 102.332 21.748C101.445 22.4925 100.322 22.8979 99.1637 22.8918H85.2403C84.0798 22.8978 82.9549 22.4908 82.067 21.7434C81.179 20.9961 80.5859 19.9573 80.3937 18.8127C80.2015 17.6682 80.4227 16.4926 81.0179 15.4962C81.613 14.4998 82.5432 13.7477 83.6421 13.3743Z" fill="white"/>
<path d="M99.1636 23.7982H85.2406C83.9261 23.8041 82.6485 23.3629 81.6178 22.547C80.5871 21.7311 79.8645 20.5889 79.5686 19.308C79.2727 18.0272 79.4212 16.6838 79.9896 15.4984C80.5581 14.3131 81.5127 13.3563 82.6967 12.7851C82.6962 12.7555 82.6962 12.7262 82.6962 12.6966C82.7019 11.1402 83.2224 9.62952 84.1767 8.40005C85.131 7.17058 86.4653 6.29151 87.9716 5.89996C89.4779 5.5084 91.0715 5.62638 92.5037 6.23549C93.9359 6.8446 95.1263 7.91059 95.8891 9.26719C96.4991 9.00891 97.1616 8.89901 97.8223 8.94652C98.483 8.99402 99.123 9.19758 99.6897 9.54047C100.256 9.88336 100.734 10.3558 101.083 10.919C101.431 11.4822 101.641 12.1201 101.696 12.7802C102.882 13.3491 103.839 14.3048 104.41 15.4901C104.981 16.6755 105.132 18.0198 104.837 19.3021C104.542 20.5843 103.82 21.7281 102.789 22.5453C101.758 23.3624 100.479 23.8043 99.1636 23.7982ZM89.7449 7.48566C89.0091 7.47967 88.2805 7.63008 87.6073 7.92691C86.934 8.22375 86.3315 8.66024 85.8397 9.20747C85.3478 9.75471 84.9779 10.4002 84.7543 11.1012C84.5307 11.8022 84.4586 12.5427 84.5428 13.2736C84.5658 13.4784 84.5183 13.6849 84.408 13.859C84.2978 14.0331 84.1315 14.1644 83.9366 14.2312C83.0405 14.5349 82.2818 15.1478 81.7965 15.9599C81.3111 16.7721 81.1307 17.7305 81.2876 18.6636C81.4445 19.5966 81.9285 20.4433 82.6528 21.052C83.3772 21.6608 84.2945 21.9917 85.2407 21.9857H99.1636C100.108 21.9919 101.023 21.6624 101.747 21.056C102.471 20.4497 102.956 19.6059 103.115 18.6753C103.274 17.7446 103.097 16.7877 102.616 15.9752C102.135 15.1628 101.381 14.5476 100.489 14.2396C100.299 14.1732 100.136 14.0454 100.027 13.8763C99.9174 13.7073 99.8675 13.5066 99.8849 13.3059C99.8907 13.2391 99.8955 13.1723 99.8955 13.1041C99.8929 12.6599 99.7654 12.2253 99.5277 11.85C99.2899 11.4746 98.9514 11.1737 98.5509 10.9815C98.1503 10.7893 97.7038 10.7136 97.2623 10.7629C96.8207 10.8123 96.4019 10.9848 96.0537 11.2607C95.9419 11.3492 95.8108 11.4101 95.671 11.4384C95.5312 11.4667 95.3868 11.4616 95.2493 11.4235C95.1119 11.3855 94.9854 11.3155 94.8801 11.2193C94.7748 11.1231 94.6937 11.0034 94.6435 10.8699C94.2646 9.87689 93.5937 9.02196 92.7192 8.41782C91.8448 7.81367 90.8078 7.48868 89.7449 7.48566Z" fill="#D1D6E0"/>
<path d="M85.2406 13.1043C84.6921 13.1037 84.1474 13.1947 83.6289 13.3735L85.2406 13.1043Z" fill="white"/>
<path d="M83.6288 14.2803C83.4145 14.2802 83.207 14.2042 83.0434 14.0657C82.8798 13.9271 82.7706 13.7351 82.7351 13.5237C82.6997 13.3122 82.7403 13.0951 82.8498 12.9108C82.9593 12.7265 83.1306 12.5869 83.3333 12.5169C83.947 12.3052 84.5917 12.1974 85.2409 12.1979C85.4813 12.1979 85.7118 12.2934 85.8817 12.4633C86.0517 12.6333 86.1472 12.8638 86.1472 13.1042C86.1472 13.3445 86.0517 13.575 85.8817 13.745C85.7118 13.9149 85.4813 14.0104 85.2409 14.0104C84.7929 14.0099 84.348 14.0842 83.9245 14.2303C83.8294 14.2633 83.7295 14.2802 83.6288 14.2803Z" fill="#D1D6E0"/>
<path d="M100.789 13.3781C100.266 13.1962 99.7171 13.1037 99.1641 13.1043L100.789 13.3781Z" fill="white"/>
<path d="M100.789 14.2847C100.687 14.2847 100.586 14.2675 100.49 14.2339C100.064 14.0853 99.6155 14.0097 99.1641 14.0104C98.9237 14.0104 98.6932 13.9149 98.5232 13.745C98.3533 13.575 98.2578 13.3445 98.2578 13.1041C98.2578 12.8638 98.3533 12.6333 98.5232 12.4633C98.6932 12.2934 98.9237 12.1979 99.1641 12.1979C99.8189 12.1972 100.469 12.3069 101.088 12.5222C101.29 12.5929 101.46 12.7327 101.569 12.9171C101.678 13.1015 101.718 13.3185 101.683 13.5296C101.647 13.7408 101.537 13.9324 101.374 14.0706C101.21 14.2088 101.003 14.2847 100.789 14.2847Z" fill="#D1D6E0"/>
<path d="M95.5131 10.5302C95.1437 10.8168 94.84 11.1791 94.6221 11.5928L95.5131 10.5302Z" fill="white"/>
<path d="M94.621 12.4988C94.465 12.4986 94.3117 12.4582 94.176 12.3814C94.0402 12.3046 93.9265 12.194 93.846 12.0605C93.7654 11.9269 93.7207 11.7747 93.7162 11.6188C93.7117 11.4629 93.7475 11.3084 93.8201 11.1704C94.099 10.643 94.4866 10.1807 94.9573 9.81412C95.1473 9.66732 95.3877 9.60186 95.6258 9.63211C95.864 9.66237 96.0804 9.78585 96.2276 9.97548C96.3748 10.1651 96.4408 10.4054 96.411 10.6436C96.3813 10.8818 96.2582 11.0985 96.0689 11.2461C95.802 11.4538 95.5821 11.7158 95.4237 12.0147C95.3468 12.1609 95.2313 12.2833 95.0898 12.3686C94.9484 12.4539 94.7863 12.499 94.621 12.4988Z" fill="#D1D6E0"/>
<path d="M55.3945 12.3125C55.2732 12.3101 55.1534 12.2855 55.041 12.2399C54.933 12.1958 54.8345 12.1312 54.7511 12.0496C54.6685 11.9617 54.601 11.8606 54.5516 11.7505C54.4672 11.5286 54.4672 11.2834 54.5516 11.0615C54.5966 10.9491 54.6645 10.8474 54.7511 10.7628C54.9221 10.5962 55.1514 10.5029 55.3901 10.5029C55.6288 10.5029 55.8581 10.5962 56.0291 10.7628C56.1186 10.8448 56.187 10.9473 56.2282 11.0615C56.2962 11.2275 56.3135 11.4099 56.2781 11.5857C56.2427 11.7615 56.156 11.923 56.0291 12.0497C55.8597 12.2163 55.6321 12.3106 55.3945 12.3125Z" fill="white"/>
<path d="M62.6436 15.9371H57.2061C56.9657 15.9371 56.7352 15.8416 56.5652 15.6716C56.3953 15.5017 56.2998 15.2712 56.2998 15.0308C56.2998 14.7905 56.3953 14.5599 56.5652 14.39C56.7352 14.22 56.9657 14.1246 57.2061 14.1246H62.6436C62.8839 14.1246 63.1144 14.22 63.2844 14.39C63.4543 14.5599 63.5498 14.7905 63.5498 15.0308C63.5498 15.2712 63.4543 15.5017 63.2844 15.6716C63.1144 15.8416 62.8839 15.9371 62.6436 15.9371Z" fill="white"/>
<path d="M65.3624 12.3112H59.0195C58.7792 12.3112 58.5487 12.2157 58.3787 12.0457C58.2088 11.8758 58.1133 11.6453 58.1133 11.4049C58.1133 11.1646 58.2088 10.9341 58.3787 10.7641C58.5487 10.5942 58.7792 10.4987 59.0195 10.4987H65.3624C65.6027 10.4987 65.8332 10.5942 66.0032 10.7641C66.1731 10.9341 66.2686 11.1646 66.2686 11.4049C66.2686 11.6453 66.1731 11.8758 66.0032 12.0457C65.8332 12.2157 65.6027 12.3112 65.3624 12.3112Z" fill="white"/>
<path d="M68.0811 15.9362H66.2695C66.0292 15.9362 65.7987 15.8407 65.6287 15.6707C65.4588 15.5008 65.3633 15.2703 65.3633 15.0299C65.3633 14.7896 65.4588 14.5591 65.6287 14.3891C65.7987 14.2192 66.0292 14.1237 66.2695 14.1237H68.0811C68.3215 14.1237 68.552 14.2192 68.7219 14.3891C68.8919 14.5591 68.9874 14.7896 68.9874 15.0299C68.9874 15.2703 68.8919 15.5008 68.7219 15.6707C68.552 15.8407 68.3215 15.9362 68.0811 15.9362Z" fill="white"/>
<path d="M66.269 19.5625H59.0186C58.7782 19.5625 58.5477 19.467 58.3777 19.2971C58.2078 19.1271 58.1123 18.8966 58.1123 18.6563C58.1123 18.4159 58.2078 18.1854 58.3777 18.0154C58.5477 17.8455 58.7782 17.75 59.0186 17.75H66.269C66.5093 17.75 66.7399 17.8455 66.9098 18.0154C67.0798 18.1854 67.1752 18.4159 67.1752 18.6563C67.1752 18.8966 67.0798 19.1271 66.9098 19.2971C66.7399 19.467 66.5093 19.5625 66.269 19.5625Z" fill="white"/>
<path d="M50.4014 103.844C50.3436 103.842 50.2861 103.836 50.2292 103.826C50.1691 103.817 50.1108 103.799 50.0567 103.771C50.001 103.753 49.9489 103.725 49.9027 103.689C49.8538 103.658 49.8083 103.622 49.7668 103.581C49.5967 103.409 49.4994 103.179 49.4951 102.937C49.4965 102.877 49.5026 102.816 49.5132 102.756C49.5272 102.7 49.5453 102.646 49.5672 102.593C49.5909 102.537 49.6182 102.482 49.6491 102.43C49.6857 102.382 49.725 102.337 49.7668 102.294C49.8084 102.253 49.8539 102.217 49.9027 102.185C49.9489 102.149 50.001 102.122 50.0566 102.103C50.1108 102.076 50.1691 102.058 50.2292 102.049C50.4057 102.013 50.589 102.032 50.7545 102.103C50.8627 102.147 50.9613 102.212 51.0448 102.294C51.0865 102.335 51.1229 102.38 51.1532 102.43C51.1869 102.482 51.2172 102.537 51.2439 102.593C51.2632 102.646 51.2784 102.701 51.2895 102.756C51.3045 102.815 51.3106 102.876 51.3076 102.937C51.3094 103.055 51.2878 103.172 51.2439 103.282C51.1948 103.392 51.1275 103.493 51.0448 103.581C50.9612 103.663 50.8627 103.727 50.7545 103.771C50.6423 103.817 50.5225 103.841 50.4014 103.844Z" fill="white"/>
<path d="M51.3092 100.218H49.4971C49.2567 100.218 49.0262 100.123 48.8563 99.9529C48.6863 99.7829 48.5908 99.5524 48.5908 99.3121C48.5908 99.0717 48.6863 98.8412 48.8563 98.6712C49.0262 98.5013 49.2567 98.4058 49.4971 98.4058H51.3092C51.5495 98.4058 51.78 98.5013 51.95 98.6712C52.1199 98.8412 52.2154 99.0717 52.2154 99.3121C52.2154 99.5524 52.1199 99.7829 51.95 99.9529C51.78 100.123 51.5495 100.218 51.3092 100.218Z" fill="white"/>
<path d="M54.0274 96.5924H44.9658C44.7255 96.5924 44.495 96.497 44.325 96.327C44.155 96.157 44.0596 95.9265 44.0596 95.6862C44.0596 95.4458 44.155 95.2153 44.325 95.0454C44.495 94.8754 44.7255 94.7799 44.9658 94.7799H54.0274C54.2678 94.7799 54.4983 94.8754 54.6682 95.0454C54.8382 95.2153 54.9337 95.4458 54.9337 95.6862C54.9337 95.9265 54.8382 96.157 54.6682 96.327C54.4983 96.497 54.2678 96.5924 54.0274 96.5924Z" fill="white"/>
<path d="M45.8712 100.217H42.2471C42.0067 100.217 41.7762 100.122 41.6063 99.952C41.4363 99.782 41.3408 99.5515 41.3408 99.3112C41.3408 99.0708 41.4363 98.8403 41.6063 98.6704C41.7762 98.5004 42.0067 98.4049 42.2471 98.4049H45.8712C46.1115 98.4049 46.342 98.5004 46.512 98.6704C46.6819 98.8403 46.7774 99.0708 46.7774 99.3112C46.7774 99.5515 46.6819 99.782 46.512 99.952C46.342 100.122 46.1115 100.217 45.8712 100.217Z" fill="white"/>
<path d="M46.7773 103.844H39.5273C39.287 103.844 39.0565 103.748 38.8865 103.578C38.7166 103.408 38.6211 103.178 38.6211 102.938C38.6211 102.697 38.7166 102.467 38.8865 102.297C39.0565 102.127 39.287 102.031 39.5273 102.031H46.7773C47.0177 102.031 47.2482 102.127 47.4182 102.297C47.5881 102.467 47.6836 102.697 47.6836 102.938C47.6836 103.178 47.5881 103.408 47.4182 103.578C47.2482 103.748 47.0177 103.844 46.7773 103.844Z" fill="white"/>
<path d="M79.4398 95.6244C79.1039 94.3455 79.158 92.9955 79.595 91.7475C80.032 90.4996 80.8321 89.4108 81.8924 88.6208C82.9527 87.8309 84.2249 87.3758 85.5457 87.3142C86.8665 87.2525 88.1756 87.587 89.3049 88.2747C90.36 86.8787 91.811 85.8327 93.4689 85.2728C95.1269 84.713 96.915 84.6653 98.6004 85.1359C100.286 85.6066 101.79 86.5738 102.918 87.9116C104.047 89.2494 104.746 90.8958 104.925 92.6365C106.318 93.1162 107.496 94.0745 108.25 95.3411C109.003 96.6076 109.283 98.1003 109.04 99.5537C108.796 101.007 108.045 102.327 106.92 103.279C105.795 104.231 104.369 104.753 102.895 104.752L79.634 104.752C78.4394 104.753 77.2921 104.286 76.4382 103.45C75.5843 102.615 75.0919 101.478 75.0665 100.284C75.0411 99.0892 75.4847 97.9325 76.3023 97.0615C77.1199 96.1905 78.2462 95.6746 79.4398 95.6244Z" fill="white"/>
<path d="M79.4396 93.132C79.3999 92.9787 79.3765 92.8195 79.3467 92.6625C79.3148 92.8246 79.2913 92.9895 79.2715 93.1556C79.3286 93.151 79.382 93.1344 79.4396 93.132Z" fill="white"/>
<path d="M102.895 105.658H79.6338C78.2921 105.659 76.997 105.166 75.9945 104.275C74.992 103.383 74.3521 102.154 74.1962 100.821C74.0404 99.4884 74.3795 98.145 75.1491 97.0459C75.9188 95.9469 77.0653 95.1688 78.3709 94.8596C78.3326 94.5587 78.3132 94.2557 78.3129 93.9524C78.311 92.68 78.6311 91.4278 79.2434 90.3124C79.8557 89.1971 80.7403 88.2547 81.8148 87.5733C82.8894 86.8918 84.1189 86.4933 85.3889 86.4149C86.6588 86.3366 87.928 86.5808 89.0782 87.125C90.2881 85.7685 91.8576 84.7826 93.6048 84.2814C95.352 83.7802 97.2055 83.7843 98.9505 84.2931C100.695 84.802 102.261 85.7948 103.465 87.1566C104.668 88.5184 105.462 90.1935 105.753 91.9877C107.255 92.6437 108.485 93.7969 109.237 95.2533C109.989 96.7097 110.216 98.3805 109.88 99.9848C109.545 101.589 108.667 103.029 107.395 104.062C106.123 105.095 104.534 105.659 102.895 105.658ZM85.8647 88.2131C84.9871 88.2097 84.1205 88.4084 83.332 88.7938C82.5435 89.1792 81.8543 89.7409 81.3179 90.4355C80.7814 91.13 80.412 91.9388 80.2384 92.7991C80.0648 93.6593 80.0915 94.5481 80.3166 95.3963C80.3507 95.5272 80.355 95.664 80.3293 95.7968C80.3036 95.9295 80.2485 96.0548 80.168 96.1635C80.0876 96.2722 79.9838 96.3615 79.8643 96.4248C79.7448 96.4882 79.6127 96.524 79.4776 96.5296C78.521 96.5699 77.6182 96.9835 76.963 97.6817C76.3078 98.3798 75.9523 99.307 75.9727 100.264C75.9931 101.222 76.3879 102.133 77.0723 102.802C77.7568 103.472 78.6763 103.847 79.6338 103.846H102.895C104.154 103.847 105.373 103.401 106.334 102.587C107.296 101.774 107.938 100.646 108.146 99.4038C108.354 98.1618 108.114 96.8863 107.471 95.804C106.827 94.7218 105.82 93.9029 104.629 93.4931C104.466 93.4368 104.322 93.3349 104.215 93.1995C104.107 93.0641 104.041 92.9008 104.023 92.7289C103.863 91.1691 103.236 89.6938 102.225 88.4951C101.214 87.2964 99.8658 86.4299 98.3555 86.0084C96.8451 85.5868 95.2428 85.6298 93.7573 86.1318C92.2717 86.6337 90.9717 87.5713 90.0265 88.8225C89.8911 89.0011 89.6942 89.1231 89.4741 89.1651C89.2539 89.207 89.026 89.1658 88.8344 89.0495C87.9398 88.504 86.9125 88.2147 85.8647 88.2131Z" fill="#D1D6E0"/>
<path d="M104.546 97.1434C104.403 97.1432 104.262 97.1092 104.134 97.0442C104.007 96.9792 103.897 96.885 103.813 96.7693C103.729 96.6535 103.673 96.5196 103.651 96.3784C103.628 96.2371 103.639 96.0926 103.684 95.9566C104.064 94.7832 104.162 93.5364 103.968 92.3181C103.775 91.0998 103.297 89.9445 102.572 88.9464C101.847 87.9484 100.896 87.1359 99.7972 86.5753C98.6984 86.0148 97.4826 85.722 96.249 85.721C96.0087 85.721 95.7782 85.6255 95.6082 85.4555C95.4383 85.2856 95.3428 85.0551 95.3428 84.8147C95.3428 84.5744 95.4383 84.3439 95.6082 84.1739C95.7782 84.0039 96.0087 83.9085 96.249 83.9085C97.7686 83.9096 99.2663 84.2701 100.62 84.9606C101.974 85.651 103.145 86.6518 104.038 87.8813C104.931 89.1107 105.52 90.5339 105.759 92.0347C105.997 93.5355 105.876 95.0713 105.408 96.5168C105.348 96.6988 105.233 96.8575 105.078 96.97C104.923 97.0826 104.737 97.1432 104.546 97.1434Z" fill="#D1D6E0"/>
<path d="M82.6428 97.6522C82.4231 97.6525 82.2109 97.5726 82.0459 97.4275C81.3785 96.8427 80.5212 96.5204 79.6338 96.5208C79.3934 96.5208 79.1629 96.4253 78.993 96.2554C78.823 96.0854 78.7275 95.8549 78.7275 95.6146C78.7275 95.3742 78.823 95.1437 78.993 94.9737C79.1629 94.8038 79.3934 94.7083 79.6338 94.7083C80.9608 94.7077 82.2428 95.1898 83.2407 96.0646C83.3793 96.1861 83.4775 96.347 83.5223 96.5258C83.5671 96.7046 83.5563 96.8929 83.4914 97.0654C83.4264 97.2379 83.3104 97.3865 83.1588 97.4914C83.0072 97.5962 82.8272 97.6523 82.6428 97.6522Z" fill="#D1D6E0"/>
<path d="M91.2691 90.9894C91.125 90.9896 90.983 90.9555 90.8547 90.8897C90.7265 90.824 90.6158 90.7286 90.5319 90.6115C89.9997 89.8706 89.299 89.2668 88.4877 88.8498C87.6763 88.4328 86.7775 88.2146 85.8652 88.2131C85.6249 88.2131 85.3944 88.1177 85.2244 87.9477C85.0545 87.7777 84.959 87.5472 84.959 87.3069C84.959 87.0665 85.0545 86.836 85.2244 86.6661C85.3944 86.4961 85.6249 86.4006 85.8652 86.4006C87.0653 86.4024 88.2477 86.6894 89.3151 87.2377C90.3825 87.7861 91.3043 88.5803 92.0045 89.5548C92.1017 89.6902 92.1596 89.8497 92.172 90.0158C92.1844 90.182 92.1507 90.3483 92.0747 90.4966C91.9987 90.6448 91.8833 90.7693 91.7412 90.8562C91.599 90.9432 91.4357 90.9893 91.2691 90.9894Z" fill="#D1D6E0"/>
<path d="M29.0371 98.1903C29.3119 97.1439 29.2676 96.0393 28.9101 95.0183C28.5525 93.9972 27.898 93.1064 27.0304 92.46C26.1629 91.8137 25.1219 91.4414 24.0413 91.391C22.9606 91.3405 21.8895 91.6142 20.9656 92.177C20.1023 91.0347 18.9152 90.1789 17.5587 89.7208C16.2022 89.2627 14.7392 89.2237 13.3602 89.6088C11.9812 89.9939 10.7501 90.7852 9.82719 91.8798C8.90427 92.9744 8.33229 94.3215 8.18571 95.7457C7.04564 96.1381 6.08168 96.9222 5.46525 97.9584C4.84881 98.9947 4.61985 100.216 4.81906 101.405C5.01827 102.594 5.63275 103.674 6.55325 104.453C7.47374 105.232 8.64059 105.659 9.84633 105.658L28.8782 105.659C29.8557 105.659 30.7944 105.277 31.4931 104.593C32.1918 103.91 32.5947 102.979 32.6155 102.002C32.6363 101.025 32.2733 100.079 31.6043 99.3659C30.9353 98.6533 30.0137 98.2312 29.0371 98.1903Z" fill="white"/>
<path d="M29.0371 96.151C29.0696 96.0256 29.0888 95.8954 29.1131 95.767C29.1392 95.8996 29.1585 96.0345 29.1748 96.1703C29.128 96.1666 29.0843 96.153 29.0371 96.151Z" fill="white"/>
<path d="M28.8784 106.565H9.84626C8.47519 106.565 7.14529 106.096 6.07784 105.236C5.01039 104.375 4.26974 103.175 3.97914 101.835C3.68853 100.495 3.86549 99.0964 4.48056 97.871C5.09564 96.6457 6.11175 95.6679 7.35983 95.1003C7.61662 93.6221 8.28213 92.2453 9.28101 91.1257C10.2799 90.0062 11.5722 89.1887 13.0117 88.7657C14.4513 88.3427 15.9804 88.3312 17.4262 88.7324C18.8719 89.1336 20.1764 89.9316 21.1921 91.0359C22.1574 90.6018 23.2162 90.4166 24.2716 90.4971C25.327 90.5777 26.3453 90.9214 27.2337 91.4969C28.122 92.0725 28.8519 92.8614 29.3567 93.7918C29.8616 94.7221 30.1252 95.7641 30.1236 96.8225C30.1235 97.0287 30.1128 97.2347 30.0917 97.4398C31.1783 97.7337 32.121 98.4123 32.7447 99.3493C33.3683 100.286 33.6303 101.418 33.4819 102.534C33.3336 103.649 32.7849 104.673 31.9381 105.415C31.0913 106.156 30.004 106.565 28.8784 106.565ZM15.2842 90.2522C13.7421 90.2475 12.2533 90.8168 11.1078 91.8493C9.96229 92.8818 9.24193 94.3036 9.08694 95.838C9.06938 96.0099 9.00302 96.1732 8.89568 96.3086C8.78834 96.444 8.6445 96.5458 8.48115 96.6022C7.54375 96.9248 6.75114 97.5694 6.24427 98.4214C5.73739 99.2733 5.5491 100.277 5.71287 101.255C5.87664 102.233 6.38186 103.121 7.13869 103.761C7.89553 104.402 8.85492 104.753 9.84628 104.752H28.8784C29.6187 104.753 30.3297 104.463 30.8589 103.945C31.3881 103.428 31.6934 102.723 31.7092 101.983C31.725 101.243 31.4501 100.526 30.9435 99.9863C30.4369 99.4465 29.7389 99.1268 28.9992 99.0957C28.8642 99.09 28.7322 99.0543 28.6127 98.991C28.4933 98.9277 28.3896 98.8385 28.3091 98.73C28.2286 98.6214 28.1734 98.4962 28.1476 98.3635C28.1218 98.2309 28.1259 98.0941 28.1598 97.9633C28.3894 97.0915 28.3531 96.1709 28.0556 95.3198C27.758 94.4688 27.2128 93.7262 26.4899 93.1874C25.7671 92.6486 24.8996 92.3382 23.999 92.2962C23.0984 92.2542 22.2058 92.4824 21.4359 92.9515C21.2444 93.0677 21.0165 93.1089 20.7964 93.067C20.5763 93.0252 20.3794 92.9033 20.2438 92.7249C19.6665 91.9553 18.9176 91.3311 18.0566 90.9018C17.1956 90.4725 16.2463 90.2501 15.2842 90.2522Z" fill="#D1D6E0"/>
<path d="M8.49669 99.5979C8.30527 99.5978 8.11879 99.5372 7.96395 99.4246C7.8091 99.3121 7.69385 99.1534 7.63469 98.9713C7.24316 97.764 7.14273 96.4811 7.34158 95.2275C7.54044 93.9739 8.03295 92.7852 8.7789 91.7582C9.52484 90.7313 10.5031 89.8953 11.6338 89.3186C12.7644 88.7419 14.0155 88.4407 15.2847 88.4397C15.5251 88.4397 15.7556 88.5352 15.9255 88.7052C16.0955 88.8751 16.191 89.1056 16.191 89.346C16.191 89.5863 16.0955 89.8168 15.9255 89.9868C15.7556 90.1567 15.5251 90.2522 15.2847 90.2522C14.3015 90.2531 13.3324 90.4865 12.4565 90.9333C11.5807 91.3802 10.8229 92.0278 10.2451 92.8234C9.66724 93.6189 9.28574 94.5398 9.13169 95.5109C8.97765 96.482 9.05543 97.4758 9.35869 98.4111C9.40275 98.5472 9.41402 98.6917 9.39159 98.8329C9.36916 98.9742 9.31366 99.1081 9.22962 99.2238C9.14558 99.3395 9.03538 99.4337 8.90801 99.4987C8.78064 99.5638 8.6397 99.5977 8.49669 99.5979Z" fill="#D1D6E0"/>
<path d="M26.4165 100.014C26.2321 100.014 26.0521 99.9578 25.9005 99.853C25.7489 99.7481 25.6329 99.5995 25.5679 99.427C25.5029 99.2544 25.4921 99.0662 25.5369 98.8874C25.5817 98.7086 25.68 98.5476 25.8186 98.4261C26.6654 97.6844 27.7529 97.2757 28.8786 97.2761C29.1189 97.2761 29.3494 97.3716 29.5194 97.5415C29.6893 97.7115 29.7848 97.942 29.7848 98.1824C29.7848 98.4227 29.6893 98.6532 29.5194 98.8232C29.3494 98.9931 29.1189 99.0886 28.8786 99.0886C28.1925 99.0881 27.5296 99.3371 27.0134 99.7891C26.8484 99.9342 26.6362 100.014 26.4165 100.014Z" fill="#D1D6E0"/>
<path d="M19.3585 94.5627C19.1919 94.5625 19.0286 94.5164 18.8864 94.4295C18.7443 94.3425 18.6289 94.2181 18.5529 94.0698C18.4769 93.9216 18.4433 93.7552 18.4556 93.5891C18.468 93.4229 18.5259 93.2634 18.6231 93.1281C19.2112 92.3095 19.9855 91.6423 20.8822 91.1817C21.7788 90.7211 22.772 90.4802 23.78 90.4788C24.0204 90.4788 24.2509 90.5743 24.4208 90.7442C24.5908 90.9142 24.6863 91.1447 24.6863 91.385C24.6863 91.6254 24.5908 91.8559 24.4208 92.0259C24.2509 92.1958 24.0204 92.2913 23.78 92.2913C23.0598 92.2924 22.3502 92.4646 21.7096 92.7938C21.069 93.123 20.5158 93.5998 20.0957 94.1848C20.0118 94.3019 19.9011 94.3972 19.7729 94.463C19.6446 94.5287 19.5026 94.5629 19.3585 94.5627Z" fill="#D1D6E0"/>
<path d="M95.1574 51.8384C96.1006 48.2325 95.9451 44.427 94.7108 40.9101C93.4765 37.3932 91.2198 34.3251 88.23 32.0995C85.2402 29.8739 81.6538 28.5921 77.9306 28.4186C74.2074 28.2451 70.5173 29.1878 67.3335 31.1258C64.3569 27.1913 60.2653 24.2436 55.5908 22.6658C50.9163 21.0881 45.8752 20.9535 41.1232 22.2794C36.3711 23.6054 32.128 26.3305 28.9457 30.1005C25.7633 33.8705 23.789 38.5108 23.2794 43.418C19.3499 44.7679 16.0268 47.4684 13.9016 51.0388C11.7765 54.6091 10.9872 58.8177 11.6742 62.9155C12.3612 67.0133 14.48 70.7344 17.6534 73.4164C20.8267 76.0984 24.8489 77.5675 29.0038 77.562L94.6096 77.5625C97.978 77.5673 101.214 76.2511 103.623 73.8964C106.031 71.5418 107.421 68.3366 107.492 64.9689C107.564 61.6013 106.312 58.3398 104.006 55.8848C101.7 53.4298 98.5229 51.977 95.1574 51.8384Z" fill="white"/>
<path d="M94.6094 78.4688C94.369 78.4688 94.1385 78.3733 93.9686 78.2033C93.7986 78.0334 93.7031 77.8029 93.7031 77.5625C93.7031 77.3222 93.7986 77.0916 93.9686 76.9217C94.1385 76.7517 94.369 76.6563 94.6094 76.6563C97.7407 76.661 100.749 75.4376 102.988 73.2489C105.228 71.0601 106.519 68.0805 106.586 64.9499C106.653 61.8193 105.489 58.7873 103.345 56.5051C101.201 54.2229 98.2478 52.8724 95.1191 52.7437C94.9841 52.738 94.852 52.7022 94.7326 52.6388C94.6131 52.5755 94.5094 52.4862 94.4289 52.3775C94.3485 52.2689 94.2934 52.1436 94.2676 52.0109C94.2419 51.8781 94.2462 51.7413 94.2802 51.6105C95.1779 48.1791 95.03 44.5578 93.8556 41.211C92.6811 37.8642 90.5336 34.9446 87.6886 32.8267C84.8435 30.7087 81.4305 29.489 77.8875 29.324C74.3445 29.159 70.833 30.0561 67.8033 31.9004C67.6118 32.0166 67.3841 32.0577 67.164 32.0159C66.944 31.9741 66.7472 31.8522 66.6117 31.6739C63.745 27.8842 59.8044 25.0449 55.3023 23.525C50.8002 22.0052 45.9449 21.8752 41.368 23.152C36.791 24.4288 32.7041 27.0532 29.6388 30.6841C26.5736 34.3149 24.6718 38.7841 24.1807 43.5104C24.1631 43.6824 24.0967 43.8456 23.9892 43.9811C23.8818 44.1165 23.7379 44.2183 23.5745 44.2746C20.3753 45.3725 17.5867 47.4195 15.5806 50.1428C13.5745 52.866 12.4462 56.1361 12.3462 59.517C12.2461 62.8979 13.179 66.229 15.0205 69.0661C16.8619 71.9033 19.5245 74.1117 22.6532 75.3969C22.7632 75.4423 22.8632 75.5089 22.9475 75.5929C23.0317 75.6769 23.0986 75.7767 23.1443 75.8866C23.19 75.9965 23.2136 76.1143 23.2138 76.2333C23.2139 76.3523 23.1907 76.4701 23.1453 76.5801C23.0999 76.6901 23.0333 76.7901 22.9493 76.8744C22.8652 76.9587 22.7654 77.0255 22.6556 77.0712C22.5457 77.1169 22.4279 77.1405 22.3089 77.1407C22.1899 77.1409 22.072 77.1176 21.962 77.0722C18.5385 75.6654 15.6173 73.2612 13.5782 70.1722C11.5391 67.0832 10.4763 63.4522 10.5282 59.7513C10.58 56.0503 11.744 52.4505 13.8688 49.4198C15.9936 46.3891 18.981 44.0677 22.4426 42.7573C23.07 37.7984 25.1416 33.1334 28.3998 29.3427C31.6579 25.5521 35.9587 22.8032 40.7671 21.4379C45.5755 20.0727 50.6792 20.1514 55.4432 21.6643C60.2071 23.1772 64.4211 26.0575 67.5608 29.9468C70.549 28.2927 73.9172 27.4472 77.3324 27.494C80.7475 27.5408 84.0913 28.4782 87.0331 30.2135C89.9748 31.9488 92.4127 34.4219 94.1056 37.3883C95.7985 40.3547 96.6879 43.7116 96.6856 47.127C96.6823 48.4352 96.5457 49.7396 96.2781 51.0202C99.7643 51.4409 102.958 53.1773 105.207 55.8744C107.456 58.5715 108.589 62.0256 108.376 65.5307C108.163 69.0357 106.619 72.327 104.06 74.7318C101.502 77.1367 98.1209 78.4734 94.6094 78.4688Z" fill="#75859E"/>
<path d="M24.349 54.4703C24.1576 54.4702 23.9711 54.4095 23.8163 54.2969C23.6615 54.1844 23.5462 54.0258 23.487 53.8438C22.6599 51.2964 22.2398 48.6344 22.2422 45.9561C22.2422 44.9757 22.2979 43.996 22.409 43.0219C22.4226 42.9036 22.4593 42.7892 22.5171 42.6851C22.5749 42.5811 22.6526 42.4894 22.7458 42.4154C22.839 42.3414 22.9459 42.2864 23.0604 42.2537C23.1748 42.221 23.2946 42.2111 23.4128 42.2247C23.5311 42.2383 23.6455 42.275 23.7496 42.3328C23.8536 42.3906 23.9453 42.4683 24.0193 42.5615C24.0933 42.6547 24.1483 42.7616 24.181 42.876C24.2137 42.9905 24.2236 43.1102 24.21 43.2285C24.1064 44.134 24.0546 45.0447 24.0547 45.9561C24.0522 48.4442 24.4424 50.9171 25.211 53.2835C25.255 53.4196 25.2663 53.5641 25.2439 53.7054C25.2214 53.8466 25.1659 53.9805 25.0819 54.0962C24.9979 54.212 24.8877 54.3062 24.7603 54.3712C24.6329 54.4362 24.492 54.4702 24.349 54.4703Z" fill="#75859E"/>
<path d="M86.1225 55.905C85.9381 55.9051 85.7581 55.8489 85.6064 55.744C85.4548 55.6391 85.3388 55.4904 85.2738 55.3178C85.2089 55.1452 85.1982 54.9569 85.2431 54.778C85.288 54.5992 85.3864 54.4383 85.5252 54.3168C88.0397 52.116 91.2681 50.9034 94.6098 50.9047C94.8501 50.9047 95.0806 51.0001 95.2506 51.1701C95.4205 51.3401 95.516 51.5706 95.516 51.8109C95.516 52.0513 95.4205 52.2818 95.2506 52.4517C95.0806 52.6217 94.8501 52.7172 94.6098 52.7172C91.7073 52.7158 88.9031 53.7689 86.7191 55.6806C86.5541 55.8255 86.3421 55.9052 86.1225 55.905Z" fill="#75859E"/>
<path d="M61.796 37.1282C61.6294 37.128 61.4661 37.0819 61.3239 36.995C61.1818 36.9081 61.0664 36.7836 60.9904 36.6354C60.9144 36.4871 60.8808 36.3208 60.8931 36.1546C60.9055 35.9885 60.9634 35.8289 61.0606 35.6936C62.6841 33.439 64.7624 31.55 67.1614 30.1486C67.3691 30.0283 67.616 29.9953 67.848 30.0569C68.0799 30.1185 68.278 30.2696 68.3987 30.477C68.5194 30.6844 68.5529 30.9313 68.4918 31.1634C68.4308 31.3955 68.2801 31.5939 68.0729 31.715C65.8946 32.9876 64.0074 34.7029 62.5332 36.7503C62.4493 36.8675 62.3387 36.9629 62.2104 37.0286C62.0822 37.0943 61.9401 37.1285 61.796 37.1282Z" fill="#75859E"/>
<path d="M62.4073 42.6743L58.7734 63.7818L78.2696 67.1383L81.9035 46.0307L62.4073 42.6743Z" fill="white"/>
<path d="M64.7152 45.9411L62.3184 59.8632L76.2404 62.26L78.6372 48.338L64.7152 45.9411Z" fill="#75859E"/>
<path d="M76.2402 62.2596L62.3184 59.8634L67.0055 55.034L69.0029 57.1075L72.9006 53.4427L76.2402 62.2596Z" fill="white"/>
<path d="M71.0377 51.6622C70.9465 52.1922 70.7002 52.6831 70.3299 53.0731C69.9596 53.463 69.4821 53.7344 68.9576 53.8529C68.4331 53.9714 67.8852 53.9317 67.3833 53.7388C66.8813 53.546 66.4478 53.2086 66.1376 52.7694C65.8274 52.3301 65.6545 51.8088 65.6406 51.2713C65.6267 50.7337 65.7725 50.2041 66.0595 49.7495C66.3466 49.2948 66.7621 48.9355 67.2534 48.7169C67.7447 48.4984 68.2898 48.4304 68.8197 48.5216C69.5303 48.644 70.1632 49.0436 70.5791 49.6326C70.9951 50.2215 71.1601 50.9516 71.0377 51.6622Z" fill="white"/>
<path d="M78.2701 68.0447C78.2185 68.0446 78.167 68.0402 78.1162 68.0314L58.6203 64.6745C58.3835 64.6337 58.1727 64.5005 58.0341 64.3043C57.8955 64.108 57.8405 63.8648 57.8813 63.628L61.5151 42.5205C61.5353 42.4032 61.5784 42.291 61.6419 42.1904C61.7054 42.0897 61.7882 42.0025 61.8854 41.9339C61.9826 41.8652 62.0924 41.8164 62.2086 41.7901C62.3247 41.7639 62.4448 41.7609 62.5621 41.7811L82.058 45.1379C82.2948 45.1788 82.5056 45.3119 82.6442 45.5082C82.7828 45.7044 82.8377 45.9477 82.797 46.1845L79.1631 67.292C79.1269 67.5026 79.0175 67.6936 78.8541 67.8314C78.6907 67.9691 78.4838 68.0446 78.2701 68.0447ZM59.8212 63.0422L77.5307 66.0915L80.8571 46.7703L63.1475 43.721L59.8212 63.0422Z" fill="#75859E"/>
<path d="M68.0435 69.4062L65.6999 54.6688L58.1282 49.1751L36.8975 52.5509L39.5772 69.4062H68.0435Z" fill="white"/>
<path d="M58.1279 49.1751L59.1674 55.7074L65.6996 54.6688L58.1279 49.1751Z" fill="#75859E"/>
<path d="M68.0419 70.3125C67.8264 70.3122 67.6182 70.2351 67.4544 70.0952C67.2906 69.9552 67.182 69.7615 67.148 69.5487L64.8638 55.1815L57.8997 50.1285L37.9339 53.3035L40.4721 69.2638C40.5099 69.5012 40.4518 69.7439 40.3107 69.9385C40.1695 70.1331 39.9568 70.2636 39.7194 70.3014C39.482 70.3392 39.2393 70.2812 39.0447 70.14C38.8501 69.9988 38.7195 69.7862 38.6817 69.5487L36.0014 52.6933C35.9638 52.4559 36.0219 52.2133 36.163 52.0187C36.3042 51.8241 36.5168 51.6935 36.7541 51.6556L57.9855 48.2793C58.2229 48.2424 58.4654 48.3004 58.6603 48.4408L66.2321 53.9349C66.4264 54.0763 66.5569 54.2889 66.5949 54.5261L68.9384 69.2638C68.9761 69.5012 68.918 69.7438 68.7768 69.9384C68.6357 70.1329 68.4231 70.2635 68.1857 70.3014C68.1381 70.3088 68.09 70.3125 68.0419 70.3125Z" fill="#75859E"/>
<g opacity="0.5">
<path d="M46.9169 58.5618C46.689 58.5615 46.4695 58.4753 46.3023 58.3205C46.1351 58.1656 46.0323 57.9535 46.0145 57.7262C45.9967 57.499 46.0651 57.2734 46.2062 57.0944C46.3473 56.9154 46.5506 56.7961 46.7757 56.7603L49.2254 56.3705C49.3431 56.3516 49.4633 56.3561 49.5791 56.3838C49.695 56.4114 49.8043 56.4616 49.9008 56.5315C49.9973 56.6013 50.079 56.6896 50.1414 56.7911C50.2037 56.8926 50.2454 57.0054 50.2642 57.123C50.2829 57.2407 50.2782 57.3609 50.2505 57.4767C50.2227 57.5926 50.1724 57.7018 50.1024 57.7982C50.0324 57.8946 49.9441 57.9762 49.8425 58.0385C49.7409 58.1007 49.6281 58.1423 49.5104 58.1609L47.0607 58.5507C47.0131 58.5581 46.965 58.5618 46.9169 58.5618Z" fill="#75859E"/>
<path d="M52.634 57.6524C52.406 57.6522 52.1865 57.5661 52.0192 57.4112C51.8519 57.2564 51.7491 57.0442 51.7313 56.8169C51.7135 56.5896 51.782 56.364 51.9231 56.185C52.0643 56.006 52.2677 55.8867 52.4928 55.851L55.759 55.3319C55.9962 55.2947 56.2384 55.3532 56.4326 55.4944C56.6267 55.6357 56.7569 55.8482 56.7945 56.0853C56.8321 56.3225 56.7742 56.5648 56.6333 56.7593C56.4924 56.9537 56.2801 57.0842 56.0431 57.1223L52.7769 57.6414C52.7296 57.6487 52.6819 57.6525 52.634 57.6524Z" fill="#75859E"/>
<path d="M47.4364 61.8279C47.2085 61.8276 46.989 61.7414 46.8218 61.5866C46.6546 61.4317 46.5518 61.2196 46.534 60.9924C46.5162 60.7651 46.5847 60.5396 46.7257 60.3606C46.8668 60.1816 47.0701 60.0623 47.2952 60.0265L51.3782 59.3773C51.6156 59.3395 51.8583 59.3976 52.0529 59.5387C52.2475 59.6799 52.3781 59.8926 52.4159 60.13C52.4537 60.3674 52.3956 60.6101 52.2544 60.8047C52.1133 60.9993 51.9006 61.1299 51.6632 61.1677L47.5802 61.8168C47.5326 61.8242 47.4845 61.8279 47.4364 61.8279Z" fill="#75859E"/>
<path d="M54.785 60.6592C54.5571 60.6589 54.3377 60.5728 54.1705 60.4179C54.0032 60.2631 53.9005 60.0509 53.8827 59.8237C53.8648 59.5965 53.9333 59.3709 54.0744 59.1919C54.2155 59.0129 54.4188 58.8936 54.6439 58.8578L56.2772 58.5981C56.5145 58.5606 56.7569 58.6188 56.9513 58.76C57.1457 58.9011 57.276 59.1137 57.3138 59.3509C57.3516 59.5882 57.2936 59.8307 57.1527 60.0252C57.0117 60.2198 56.7993 60.3504 56.5621 60.3884L54.9289 60.6482C54.8813 60.6556 54.8332 60.6593 54.785 60.6592Z" fill="#75859E"/>
<path d="M59.6859 59.88C59.4579 59.8798 59.2384 59.7937 59.0711 59.6389C58.9038 59.4841 58.8009 59.2719 58.7831 59.0447C58.7652 58.8174 58.8336 58.5918 58.9747 58.4127C59.1158 58.2337 59.3191 58.1144 59.5443 58.0786L61.1771 57.8188C61.4142 57.7818 61.6562 57.8403 61.8502 57.9815C62.0442 58.1227 62.1743 58.335 62.212 58.5719C62.2497 58.8089 62.192 59.0511 62.0514 59.2455C61.9108 59.44 61.6989 59.5707 61.4621 59.6092L59.8292 59.8689C59.7818 59.8763 59.7339 59.88 59.6859 59.88Z" fill="#75859E"/>
<path d="M47.9559 65.0945C47.728 65.0942 47.5086 65.008 47.3413 64.8532C47.1741 64.6983 47.0714 64.4861 47.0536 64.2589C47.0357 64.0317 47.1042 63.8061 47.2453 63.6271C47.3863 63.4481 47.5897 63.3288 47.8147 63.293L53.5306 62.3837C53.7676 62.3467 54.0097 62.4052 54.2037 62.5464C54.3976 62.6876 54.5278 62.8999 54.5655 63.1368C54.6032 63.3738 54.5454 63.616 54.4049 63.8104C54.2643 64.0049 54.0524 64.1356 53.8155 64.1741L48.0997 65.0834C48.0521 65.0908 48.0041 65.0945 47.9559 65.0945Z" fill="#75859E"/>
<path d="M56.9383 63.666C56.7104 63.6657 56.491 63.5796 56.3238 63.4247C56.1565 63.2699 56.0538 63.0577 56.036 62.8305C56.0182 62.6033 56.0866 62.3777 56.2277 62.1987C56.3688 62.0197 56.5721 61.9004 56.7972 61.8646L61.6966 61.0854C61.9339 61.0479 62.1763 61.1061 62.3707 61.2473C62.5651 61.3884 62.6954 61.601 62.7332 61.8382C62.771 62.0755 62.713 62.318 62.5721 62.5125C62.4311 62.7071 62.2187 62.8377 61.9815 62.8757L57.0821 63.655C57.0346 63.6624 56.9865 63.6661 56.9383 63.666Z" fill="#75859E"/>
<path d="M48.4754 68.3606C48.2474 68.3603 48.028 68.2741 47.8608 68.1192C47.6935 67.9643 47.5908 67.7521 47.5731 67.5249C47.5553 67.2976 47.6238 67.072 47.765 66.8931C47.9061 66.7141 48.1095 66.5949 48.3346 66.5592L50.7848 66.1698C51.0222 66.1321 51.2649 66.1903 51.4594 66.3315C51.6539 66.4728 51.7843 66.6855 51.822 66.9229C51.8597 67.1603 51.8015 67.403 51.6603 67.5975C51.519 67.792 51.3063 67.9225 51.0689 67.9601L48.6187 68.3495C48.5713 68.3569 48.5234 68.3606 48.4754 68.3606Z" fill="#75859E"/>
<path d="M54.1917 67.4517C53.9638 67.4515 53.7443 67.3654 53.577 67.2106C53.4096 67.0558 53.3068 66.8436 53.2889 66.6164C53.2711 66.3891 53.3395 66.1635 53.4806 65.9844C53.6216 65.8054 53.825 65.6861 54.0501 65.6503L62.2161 64.3515C62.4534 64.314 62.6959 64.3723 62.8902 64.5134C63.0846 64.6546 63.215 64.8671 63.2527 65.1044C63.2905 65.3416 63.2325 65.5841 63.0916 65.7787C62.9507 65.9732 62.7383 66.1038 62.5011 66.1419L54.3351 67.4406C54.2877 67.448 54.2397 67.4517 54.1917 67.4517Z" fill="#75859E"/>
</g>
<g opacity="0.5">
<path d="M42.8344 59.2109C42.6066 59.2106 42.3872 59.1244 42.2201 58.9696C42.053 58.8148 41.9503 58.6027 41.9325 58.3756C41.9147 58.1485 41.9831 57.923 42.124 57.744C42.265 57.5651 42.4683 57.4458 42.6932 57.4099L43.5097 57.2798C43.6273 57.2607 43.7476 57.265 43.8636 57.2925C43.9796 57.32 44.0891 57.3701 44.1857 57.4399C44.2823 57.5098 44.3642 57.598 44.4266 57.6995C44.4891 57.8011 44.5309 57.9139 44.5496 58.0317C44.5684 58.1494 44.5637 58.2697 44.5359 58.3856C44.508 58.5015 44.4576 58.6108 44.3875 58.7072C44.3173 58.8036 44.2289 58.8852 44.1271 58.9473C44.0254 59.0095 43.9124 59.0509 43.7946 59.0693L42.9782 59.1994C42.9307 59.2072 42.8826 59.211 42.8344 59.2109Z" fill="#75859E"/>
<path d="M43.3543 62.477C43.1263 62.4767 42.9069 62.3905 42.7397 62.2357C42.5724 62.0808 42.4697 61.8686 42.452 61.6413C42.4342 61.4141 42.5027 61.1885 42.6439 61.0095C42.785 60.8305 42.9884 60.7113 43.2135 60.6756L44.03 60.546C44.2674 60.5083 44.51 60.5665 44.7046 60.7077C44.8991 60.849 45.0295 61.0617 45.0672 61.2991C45.1049 61.5365 45.0467 61.7792 44.9055 61.9737C44.7642 62.1682 44.5515 62.2987 44.3141 62.3363L43.4976 62.466C43.4502 62.4734 43.4023 62.4771 43.3543 62.477Z" fill="#75859E"/>
<path d="M43.8739 65.7436C43.6459 65.7433 43.4265 65.6571 43.2592 65.5022C43.092 65.3474 42.9893 65.1351 42.9715 64.9079C42.9538 64.6806 43.0223 64.4551 43.1634 64.2761C43.3046 64.0971 43.508 63.9779 43.7331 63.9422L44.5496 63.8125C44.6672 63.7936 44.7875 63.7981 44.9034 63.8258C45.0193 63.8534 45.1286 63.9036 45.2251 63.9735C45.3216 64.0434 45.4034 64.1317 45.4657 64.2333C45.5281 64.3348 45.5698 64.4477 45.5885 64.5654C45.6071 64.6831 45.6024 64.8033 45.5746 64.9192C45.5467 65.0351 45.4963 65.1443 45.4262 65.2407C45.3561 65.3371 45.2677 65.4186 45.166 65.4808C45.0643 65.543 44.9514 65.5844 44.8336 65.6029L44.0172 65.7326C43.9698 65.7399 43.9219 65.7437 43.8739 65.7436Z" fill="#75859E"/>
<path d="M44.3925 69.0102C44.1646 69.0099 43.9451 68.9238 43.7779 68.7689C43.6106 68.6141 43.5079 68.4019 43.4901 68.1747C43.4723 67.9475 43.5407 67.7219 43.6818 67.5429C43.8229 67.3639 44.0262 67.2446 44.2513 67.2088L45.0682 67.0787C45.3055 67.0412 45.5479 67.0994 45.7423 67.2406C45.9367 67.3818 46.067 67.5943 46.1048 67.8315C46.1426 68.0688 46.0846 68.3113 45.9437 68.5058C45.8027 68.7004 45.5903 68.831 45.3531 68.8691L44.5363 68.9991C44.4887 69.0065 44.4406 69.0103 44.3925 69.0102Z" fill="#75859E"/>
</g>
<path d="M49.8154 69.4064H80.2719L77.3666 59.8291C77.2781 59.5308 77.0748 59.2798 76.8013 59.1314C76.5278 58.9829 76.2065 58.9492 75.9082 59.0375L50.2493 66.8212C49.9521 66.9135 49.7037 67.1201 49.5588 67.3955C49.4139 67.6709 49.3843 67.9926 49.4766 68.2898L49.8154 69.4064Z" fill="white"/>
<path opacity="0.2" d="M49.8154 69.4064H80.2719L77.3666 59.8291C77.2781 59.5308 77.0748 59.2798 76.8013 59.1314C76.5278 58.9829 76.2065 58.9492 75.9082 59.0375L50.2493 66.8212C49.9521 66.9135 49.7037 67.1201 49.5588 67.3955C49.4139 67.6709 49.3843 67.9926 49.4766 68.2898L49.8154 69.4064Z" fill="#75859E"/>
<path d="M71.1103 69.4063L76.7971 59.1294L49.5615 67.3917L53.4666 69.4063H71.1103Z" fill="white"/>
<path d="M49.8154 70.3129C49.621 70.3127 49.4319 70.25 49.2758 70.1342C49.1197 70.0183 49.005 69.8554 48.9485 69.6695L48.6095 68.553C48.4484 68.0258 48.5028 67.4562 48.7608 66.969C49.0189 66.4818 49.4595 66.1167 49.9861 65.9538L75.6453 58.1702C75.9069 58.0902 76.1819 58.0634 76.4541 58.0914C76.7262 58.1194 76.99 58.2015 77.2299 58.333C77.7148 58.5947 78.076 59.0383 78.2339 59.5663L81.1394 69.1429C81.1743 69.2569 81.1864 69.3767 81.175 69.4954C81.1635 69.614 81.1288 69.7293 81.0727 69.8345C81.0167 69.9397 80.9404 70.0328 80.8483 70.1085C80.7562 70.1842 80.6501 70.241 80.5361 70.2757C80.422 70.3103 80.3022 70.3221 80.1836 70.3103C80.0649 70.2986 79.9498 70.2636 79.8447 70.2073C79.7396 70.151 79.6467 70.0745 79.5712 69.9822C79.4957 69.8899 79.4392 69.7837 79.4048 69.6695L76.4993 60.0924C76.489 60.0571 76.4719 60.0243 76.4489 59.9956C76.4258 59.967 76.3974 59.9432 76.3652 59.9256C76.336 59.9092 76.3037 59.899 76.2704 59.8954C76.2371 59.8918 76.2035 59.895 76.1714 59.9047L50.5123 67.6884C50.4453 67.7112 50.3899 67.7596 50.3584 67.823C50.3269 67.8864 50.3218 67.9598 50.3442 68.0269L50.6831 69.1429C50.7241 69.2784 50.7328 69.4216 50.7085 69.5611C50.6843 69.7006 50.6277 69.8324 50.5434 69.9461C50.4591 70.0598 50.3493 70.1522 50.2229 70.2159C50.0965 70.2796 49.9569 70.3128 49.8154 70.3129Z" fill="#75859E"/>
<path d="M59.5792 69.4062L60.5715 67.4388L41.9689 58.0564L36.2441 69.4062H59.5792Z" fill="white"/>
<path opacity="0.5" d="M59.5615 69.4062L60.5711 67.4388L41.9685 58.0564L39.5488 62.7725L52.7012 69.4062H59.5615Z" fill="#75859E"/>
<path d="M36.2434 70.3125C36.0888 70.3124 35.9367 70.2727 35.8017 70.1972C35.6667 70.1217 35.5533 70.0129 35.4722 69.8811C35.3912 69.7494 35.3452 69.5991 35.3387 69.4445C35.3322 69.29 35.3653 69.1363 35.435 68.9982L41.1597 57.648C41.2683 57.4337 41.4573 57.2712 41.6855 57.1959C41.9136 57.1207 42.1623 57.139 42.377 57.2466L60.9795 66.629C61.194 66.7373 61.3569 66.9264 61.4321 67.1546C61.5074 67.3829 61.4889 67.6317 61.3808 67.8464L60.3883 69.8142C60.28 70.0289 60.091 70.1917 59.8627 70.267C59.6344 70.3423 59.3856 70.3238 59.1709 70.2156C58.9563 70.1074 58.7934 69.9183 58.7181 69.69C58.6429 69.4617 58.6614 69.2129 58.7696 68.9982L59.3541 67.8393L42.3699 59.2733L37.0537 69.8142C36.978 69.9641 36.8622 70.0901 36.7191 70.1781C36.576 70.2661 36.4114 70.3126 36.2434 70.3125Z" fill="#75859E"/>
<path d="M31.3701 63.0625L25.9326 69.4062H35.3709C36.1399 67.597 37.9014 64.2478 37.9014 64.2478L37.6539 63.0625C37.6539 63.0625 32.4718 63.0625 31.3701 63.0625Z" fill="#05568B"/>
<path d="M81.1242 69.4062H91.1822L85.7447 63.0625H79.8955L79.6396 64.3108L81.1242 69.4062Z" fill="#05568B"/>
<path d="M25.9326 87.5312V69.4062H91.1826V87.5312C91.1826 88.012 90.9917 88.473 90.6517 88.8129C90.3118 89.1528 89.8508 89.3438 89.3701 89.3438H27.7451C27.2644 89.3438 26.8034 89.1528 26.4635 88.8129C26.1236 88.473 25.9326 88.012 25.9326 87.5312Z" fill="#016AAE"/>
<path d="M61.2764 75.75H55.8389C55.5985 75.75 55.368 75.6545 55.1981 75.4846C55.0281 75.3146 54.9326 75.0841 54.9326 74.8438C54.9326 74.6034 55.0281 74.3729 55.1981 74.2029C55.368 74.033 55.5985 73.9375 55.8389 73.9375H61.2764C61.5167 73.9375 61.7472 74.033 61.9172 74.2029C62.0871 74.3729 62.1826 74.6034 62.1826 74.8438C62.1826 75.0841 62.0871 75.3146 61.9172 75.4846C61.7472 75.6545 61.5167 75.75 61.2764 75.75Z" fill="white"/>
<path d="M65.8076 83.0003H51.3076C50.3465 82.9993 49.4251 82.617 48.7455 81.9374C48.0659 81.2578 47.6836 80.3364 47.6826 79.3753C47.6826 78.8946 47.8736 78.4336 48.2135 78.0936C48.5534 77.7537 49.0144 77.5628 49.4951 77.5628C49.9758 77.5628 50.4368 77.7537 50.7767 78.0936C51.1167 78.4336 51.3076 78.8946 51.3076 79.3753V79.3779L65.8076 79.3753C65.8076 78.8946 65.9986 78.4336 66.3385 78.0936C66.6784 77.7537 67.1394 77.5628 67.6201 77.5628C68.1008 77.5628 68.5618 77.7537 68.9017 78.0936C69.2417 78.4336 69.4326 78.8946 69.4326 79.3753C69.4316 80.3364 69.0493 81.2578 68.3697 81.9374C67.6901 82.617 66.7687 82.9992 65.8076 83.0003Z" fill="white"/>
</svg>
