<svg width="114" height="113" viewBox="0 0 114 113" fill="none" xmlns="http://www.w3.org/2000/svg">
<path d="M112.902 41.2402C112.103 35.7414 109.635 30.6204 105.832 26.5692C102.029 22.5181 97.0741 19.7322 91.6366 18.5881C87.7752 17.7646 84.2969 15.6812 81.7486 12.6654C77.7464 7.93967 72.5119 4.41674 66.627 2.48844C60.7422 0.560135 54.4378 0.302051 48.4151 1.74289C42.3923 3.18373 36.8873 6.267 32.5123 10.6498C28.1372 15.0326 25.0637 20.5431 23.6336 26.5684C22.9764 29.2152 21.7573 31.6896 20.059 33.8235C18.3608 35.9574 16.2231 37.7008 13.7913 38.9353C0.981727 45.5907 -5.43588 62.866 6.23925 79.0777C7.76227 81.0055 9.73506 82.5302 11.9846 83.518C16.1198 85.5608 19.3492 89.0662 21.0467 93.3547C22.5052 96.9287 24.748 100.129 27.6095 102.72C30.471 105.311 33.8781 107.225 37.5789 108.323C41.2798 109.42 45.1799 109.671 48.991 109.059C52.8022 108.446 56.4271 106.985 59.5978 104.784C61.7599 103.274 64.2251 102.254 66.8218 101.794C69.4184 101.335 72.0841 101.447 74.633 102.122C78.9558 103.301 83.5082 103.352 87.8564 102.271C92.2045 101.191 96.2034 99.0142 99.4717 95.9495C102.74 92.8848 105.169 89.0341 106.527 84.7643C107.884 80.4946 108.126 75.9482 107.228 71.5587C106.384 67.1642 107.192 62.6128 109.497 58.7774C112.591 53.4879 113.791 47.3029 112.902 41.2402Z" fill="#D1D6E0"/>
<path d="M71.5851 112.998H1.02847C0.788596 112.998 0.558547 112.902 0.38893 112.733C0.219313 112.563 0.124023 112.333 0.124023 112.093C0.124023 111.853 0.219313 111.623 0.38893 111.454C0.558547 111.284 0.788596 111.189 1.02847 111.189H71.5851C71.8249 111.189 72.055 111.284 72.2246 111.454C72.3942 111.623 72.4895 111.853 72.4895 112.093C72.4895 112.333 72.3942 112.563 72.2246 112.733C72.055 112.902 71.8249 112.998 71.5851 112.998Z" fill="#D1D6E0"/>
<path d="M107.765 112.998H82.4406C82.2007 112.998 81.9707 112.902 81.801 112.733C81.6314 112.563 81.5361 112.333 81.5361 112.093C81.5361 111.853 81.6314 111.623 81.801 111.454C81.9707 111.284 82.2007 111.189 82.4406 111.189H107.765C108.005 111.189 108.235 111.284 108.404 111.454C108.574 111.623 108.669 111.853 108.669 112.093C108.669 112.333 108.574 112.563 108.404 112.733C108.235 112.902 108.005 112.998 107.765 112.998Z" fill="#D1D6E0"/>
<path d="M100.528 100.335H17.3087C17.0689 100.335 16.8388 100.24 16.6692 100.07C16.4996 99.9008 16.4043 99.6708 16.4043 99.4309C16.4043 99.191 16.4996 98.961 16.6692 98.7914C16.8388 98.6217 17.0689 98.5265 17.3087 98.5265H100.528C100.767 98.5265 100.997 98.6217 101.167 98.7914C101.337 98.961 101.432 99.191 101.432 99.4309C101.432 99.6708 101.337 99.9008 101.167 100.07C100.997 100.24 100.767 100.335 100.528 100.335Z" fill="#D1D6E0"/>
<path d="M84.8996 12.9092C84.7582 11.5918 85.102 10.268 85.8664 9.1857C86.6309 8.10344 87.7636 7.33693 89.0525 7.02972C90.3414 6.72251 91.6981 6.89566 92.8686 7.51674C94.039 8.13782 94.9429 9.16425 95.411 10.4038C95.8384 10.0652 96.3525 9.85366 96.8944 9.79334C97.4363 9.73302 97.9843 9.82636 98.4756 10.0627C98.967 10.299 99.382 10.6688 99.6732 11.1298C99.9644 11.5908 100.12 12.1245 100.122 12.6697C100.122 12.7534 100.117 12.8356 100.11 12.9175C101.081 13.2534 101.901 13.9232 102.424 14.8074C102.947 15.6917 103.14 16.733 102.967 17.7459C102.794 18.7587 102.267 19.6772 101.48 20.3377C100.693 20.9982 99.6966 21.3578 98.6691 21.3524H86.3175C85.2879 21.3578 84.29 20.9967 83.5023 20.3337C82.7146 19.6707 82.1884 18.7492 82.0179 17.7338C81.8474 16.7185 82.0437 15.6756 82.5716 14.7917C83.0996 13.9077 83.9247 13.2405 84.8996 12.9092Z" fill="white"/>
<path d="M98.6687 22.257H86.3169C85.1334 22.2623 83.983 21.8668 83.0529 21.135C82.1228 20.4032 81.4678 19.3781 81.1944 18.2266C80.9211 17.0751 81.0455 15.865 81.5475 14.7932C82.0495 13.7215 82.8995 12.8512 83.9591 12.324V12.3081C83.964 10.9128 84.4281 9.55799 85.2797 8.45274C86.1313 7.3475 87.323 6.55329 88.6709 6.19275C90.0187 5.8322 91.4478 5.92536 92.7375 6.45785C94.0271 6.99033 95.1057 7.93253 95.8065 9.13898C96.3562 8.92132 96.9489 8.83434 97.5379 8.8849C98.127 8.93546 98.6962 9.12217 99.2007 9.43032C99.7052 9.73846 100.131 10.1596 100.445 10.6605C100.759 11.1615 100.952 11.7285 101.01 12.3169C102.073 12.841 102.926 13.7098 103.432 14.7815C103.937 15.8533 104.065 17.0647 103.793 18.2181C103.521 19.3715 102.867 20.3988 101.936 21.1323C101.005 21.8659 99.8537 22.2623 98.6687 22.257ZM90.3132 7.78584C89.1112 7.78419 87.9576 8.25938 87.1055 9.10716C86.2534 9.95495 85.7724 11.1061 85.768 12.3081C85.7688 12.476 85.7788 12.6438 85.798 12.8106C85.8203 13.0148 85.7725 13.2205 85.6624 13.3939C85.5522 13.5672 85.3864 13.698 85.1921 13.7646C84.4198 14.0264 83.7659 14.5547 83.3476 15.2548C82.9293 15.9548 82.7739 16.781 82.9093 17.5852C83.0446 18.3894 83.4618 19.1191 84.0862 19.6437C84.7106 20.1683 85.5014 20.4535 86.3169 20.4481H98.6687C99.4825 20.4535 100.272 20.1695 100.896 19.6469C101.519 19.1242 101.937 18.3969 102.074 17.5947C102.212 16.7926 102.059 15.9677 101.645 15.2675C101.23 14.5672 100.58 14.037 99.8108 13.7716C99.621 13.7053 99.4588 13.5778 99.3496 13.409C99.2405 13.2403 99.1906 13.04 99.2079 12.8398C99.2128 12.7837 99.2172 12.7272 99.2172 12.6698C99.2149 12.2944 99.1072 11.9273 98.9062 11.6102C98.7053 11.2932 98.4193 11.039 98.0809 10.8767C97.7424 10.7144 97.3652 10.6505 96.9922 10.6923C96.6192 10.734 96.2654 10.8798 95.9713 11.113C95.8601 11.2022 95.7292 11.2634 95.5895 11.2916C95.4498 11.3198 95.3054 11.3141 95.1684 11.2751C95.0313 11.2371 94.9051 11.1673 94.8001 11.0713C94.6951 10.9753 94.6143 10.8558 94.5642 10.7226C94.2354 9.86092 93.6531 9.11906 92.8943 8.5948C92.1354 8.07055 91.2355 7.78851 90.3132 7.78584Z" fill="#D1D6E0"/>
<path d="M86.3184 12.6697C85.8315 12.6692 85.348 12.75 84.8877 12.9088L86.3184 12.6697Z" fill="white"/>
<path d="M84.8886 13.8136C84.6747 13.8135 84.4679 13.7376 84.3046 13.5995C84.1414 13.4613 84.0324 13.2698 83.9969 13.0589C83.9614 12.8481 84.0018 12.6314 84.1109 12.4475C84.22 12.2635 84.3907 12.1242 84.5927 12.0541C85.1478 11.8622 85.7312 11.7646 86.3186 11.7653C86.5584 11.7653 86.7885 11.8606 86.9581 12.0302C87.1277 12.1998 87.223 12.4299 87.223 12.6698C87.223 12.9096 87.1277 13.1397 86.9581 13.3093C86.7885 13.4789 86.5584 13.5742 86.3186 13.5742C85.9326 13.5735 85.5493 13.6374 85.1845 13.7632C85.0893 13.7964 84.9893 13.8134 84.8886 13.8136Z" fill="#D1D6E0"/>
<path d="M100.112 12.9127C99.6484 12.7514 99.1609 12.6692 98.6699 12.6697L100.112 12.9127Z" fill="white"/>
<path d="M100.11 13.8175C100.009 13.8175 99.9081 13.8003 99.8125 13.7668C99.4448 13.6389 99.0583 13.5738 98.6691 13.5742C98.4292 13.5742 98.1992 13.4789 98.0296 13.3093C97.8599 13.1397 97.7646 12.9096 97.7646 12.6698C97.7646 12.4299 97.8599 12.1998 98.0296 12.0302C98.1992 11.8606 98.4292 11.7653 98.6691 11.7653C99.261 11.7646 99.8488 11.8637 100.408 12.0586C100.61 12.129 100.78 12.2685 100.889 12.4525C100.997 12.6365 101.037 12.853 101.002 13.0638C100.966 13.2745 100.857 13.4658 100.694 13.6038C100.531 13.7417 100.324 13.8175 100.11 13.8175Z" fill="#D1D6E0"/>
<path d="M95.4305 10.3862C95.1027 10.6406 94.833 10.9622 94.6396 11.3294L95.4305 10.3862Z" fill="white"/>
<path d="M94.6397 12.2334C94.4841 12.2332 94.3312 12.1929 94.1958 12.1163C94.0603 12.0398 93.9469 11.9296 93.8665 11.7964C93.7861 11.6632 93.7414 11.5115 93.7367 11.3559C93.7321 11.2004 93.7676 11.0463 93.8399 10.9086C94.0938 10.4278 94.4467 10.0063 94.8755 9.67202C94.9693 9.59912 95.0765 9.5454 95.1911 9.51394C95.3056 9.48247 95.4252 9.47388 95.5431 9.48864C95.6609 9.5034 95.7747 9.54124 95.878 9.59998C95.9812 9.65872 96.0718 9.73722 96.1447 9.831C96.2176 9.92478 96.2714 10.032 96.3028 10.1465C96.3343 10.2611 96.3429 10.3807 96.3281 10.4985C96.3134 10.6164 96.2755 10.7302 96.2168 10.8334C96.158 10.9367 96.0795 11.0273 95.9858 11.1002C95.7605 11.2757 95.5749 11.497 95.4413 11.7494C95.3646 11.8956 95.2494 12.018 95.1081 12.1034C94.9668 12.1887 94.8048 12.2337 94.6397 12.2334Z" fill="#D1D6E0"/>
<path d="M69.3266 13.5075C69.0868 13.5057 68.8569 13.4118 68.6844 13.2453C68.5192 13.0719 68.4256 12.8425 68.4221 12.6031C68.419 12.4843 68.4438 12.3665 68.4946 12.2591C68.5361 12.1474 68.6008 12.0458 68.6845 11.961C68.8594 11.7995 69.0886 11.7099 69.3266 11.7099C69.5646 11.7099 69.7939 11.7995 69.9687 11.961C70.0526 12.0457 70.1173 12.1473 70.1587 12.2591C70.2053 12.3678 70.2299 12.4848 70.231 12.6031C70.2276 12.8425 70.1339 13.0719 69.9687 13.2453C69.8807 13.3249 69.7797 13.3892 69.6702 13.4352C69.5615 13.4816 69.4448 13.5062 69.3266 13.5075Z" fill="white"/>
<path d="M67.5137 17.1249H62.0871C61.8472 17.1249 61.6171 17.0296 61.4475 16.86C61.2779 16.6904 61.1826 16.4603 61.1826 16.2204C61.1826 15.9806 61.2779 15.7505 61.4475 15.5809C61.6171 15.4113 61.8472 15.316 62.0871 15.316H67.5137C67.7536 15.316 67.9837 15.4113 68.1533 15.5809C68.3229 15.7505 68.4182 15.9806 68.4182 16.2204C68.4182 16.4603 68.3229 16.6904 68.1533 16.86C67.9837 17.0296 67.7536 17.1249 67.5137 17.1249Z" fill="white"/>
<path d="M65.7054 13.5062H59.3752C59.1353 13.5062 58.9052 13.4109 58.7356 13.2413C58.566 13.0717 58.4707 12.8416 58.4707 12.6018C58.4707 12.3619 58.566 12.1318 58.7356 11.9622C58.9052 11.7926 59.1353 11.6973 59.3752 11.6973H65.7054C65.9452 11.6973 66.1753 11.7926 66.3449 11.9622C66.5145 12.1318 66.6098 12.3619 66.6098 12.6018C66.6098 12.8416 66.5145 13.0717 66.3449 13.2413C66.1753 13.4109 65.9452 13.5062 65.7054 13.5062Z" fill="white"/>
<path d="M58.4693 17.124H56.6613C56.4214 17.124 56.1914 17.0287 56.0217 16.8591C55.8521 16.6895 55.7568 16.4594 55.7568 16.2196C55.7568 15.9797 55.8521 15.7496 56.0217 15.58C56.1914 15.4104 56.4214 15.3151 56.6613 15.3151H58.4693C58.7091 15.3151 58.9392 15.4104 59.1088 15.58C59.2784 15.7496 59.3737 15.9797 59.3737 16.2196C59.3737 16.4594 59.2784 16.6895 59.1088 16.8591C58.9392 17.0287 58.7091 17.124 58.4693 17.124Z" fill="white"/>
<path d="M65.7049 20.7431H58.4689C58.229 20.7431 57.999 20.6478 57.8294 20.4782C57.6597 20.3086 57.5645 20.0785 57.5645 19.8387C57.5645 19.5988 57.6597 19.3687 57.8294 19.1991C57.999 19.0295 58.229 18.9342 58.4689 18.9342H65.7049C65.9448 18.9342 66.1748 19.0295 66.3445 19.1991C66.5141 19.3687 66.6094 19.5988 66.6094 19.8387C66.6094 20.0785 66.5141 20.3086 66.3445 20.4782C66.1748 20.6478 65.9448 20.7431 65.7049 20.7431Z" fill="white"/>
<path d="M15.5021 62.3477C15.3234 62.3471 15.1489 62.2935 15.0007 62.1937C14.8525 62.0938 14.7373 61.9522 14.6696 61.7868C14.6234 61.6781 14.599 61.5614 14.5977 61.4432C14.6002 61.2019 14.6976 60.9712 14.8688 60.8011C15.0395 60.6349 15.2683 60.5419 15.5065 60.5419C15.7447 60.5419 15.9735 60.6349 16.1442 60.8011C16.3124 60.9725 16.4066 61.2031 16.4066 61.4432C16.4066 61.6833 16.3124 61.9139 16.1442 62.0853C15.9708 62.2504 15.7415 62.344 15.5021 62.3477Z" fill="white"/>
<path d="M16.4092 58.7294H14.6007C14.3609 58.7294 14.1308 58.6342 13.9612 58.4645C13.7916 58.2949 13.6963 58.0649 13.6963 57.825C13.6963 57.5851 13.7916 57.3551 13.9612 57.1855C14.1308 57.0158 14.3609 56.9205 14.6007 56.9205H16.4092C16.6491 56.9205 16.8791 57.0158 17.0488 57.1855C17.2184 57.3551 17.3137 57.5851 17.3137 57.825C17.3137 58.0649 17.2184 58.2949 17.0488 58.4645C16.8791 58.6342 16.6491 58.7294 16.4092 58.7294Z" fill="white"/>
<path d="M19.1209 55.1108H10.0773C9.83742 55.1108 9.60737 55.0155 9.43776 54.8459C9.26814 54.6763 9.17285 54.4462 9.17285 54.2063C9.17285 53.9665 9.26814 53.7364 9.43776 53.5668C9.60737 53.3972 9.83742 53.3019 10.0773 53.3019H19.1209C19.3607 53.3019 19.5908 53.3972 19.7604 53.5668C19.93 53.7364 20.0253 53.9665 20.0253 54.2063C20.0253 54.4462 19.93 54.6763 19.7604 54.8459C19.5908 55.0155 19.3607 55.1108 19.1209 55.1108Z" fill="white"/>
<path d="M10.9803 58.7286H7.36343C7.12356 58.7286 6.89351 58.6333 6.72389 58.4637C6.55427 58.2941 6.45898 58.064 6.45898 57.8241C6.45898 57.5843 6.55427 57.3542 6.72389 57.1846C6.89351 57.015 7.12356 56.9197 7.36343 56.9197H10.9803C11.2202 56.9197 11.4502 57.015 11.6199 57.1846C11.7895 57.3542 11.8848 57.5843 11.8848 57.8241C11.8848 58.064 11.7895 58.2941 11.6199 58.4637C11.4502 58.6333 11.2202 58.7286 10.9803 58.7286Z" fill="white"/>
<path d="M11.8851 62.3477H4.64956C4.40969 62.3477 4.17964 62.2524 4.01002 62.0828C3.84041 61.9131 3.74512 61.6831 3.74512 61.4432C3.74512 61.2033 3.84041 60.9733 4.01002 60.8037C4.17964 60.6341 4.40969 60.5388 4.64956 60.5388H11.8851C12.125 60.5388 12.3551 60.6341 12.5247 60.8037C12.6943 60.9733 12.7896 61.2033 12.7896 61.4432C12.7896 61.6831 12.6943 61.9131 12.5247 62.0828C12.3551 62.2524 12.125 62.3477 11.8851 62.3477Z" fill="white"/>
<path d="M9.87 16.2342C9.50436 14.8419 9.56321 13.372 10.039 12.0133C10.5148 10.6547 11.3858 9.46919 12.5402 8.60913C13.6946 7.74908 15.0798 7.25368 16.5178 7.18654C17.9558 7.1194 19.381 7.48358 20.6106 8.23233C21.7593 6.7124 23.339 5.57352 25.1441 4.964C26.9491 4.35448 28.8959 4.30255 30.7309 4.81497C32.5659 5.32739 34.2041 6.38042 35.4322 7.83695C36.6603 9.29349 37.4214 11.086 37.6164 12.9812C39.1335 13.5035 40.4163 14.5468 41.2365 15.9257C42.0568 17.3046 42.3615 18.9298 42.0964 20.5122C41.8313 22.0946 41.0137 23.5317 39.7888 24.568C38.5639 25.6043 37.0112 26.1726 35.4067 26.1719L10.0814 26.1721C8.78076 26.1729 7.53166 25.6639 6.60201 24.7543C5.67236 23.8447 5.1362 22.607 5.10855 21.3067C5.08089 20.0064 5.56394 18.747 6.45408 17.7988C7.34421 16.8505 8.57054 16.2888 9.87 16.2342Z" fill="white"/>
<path d="M9.87089 13.5215C9.82758 13.3544 9.80212 13.1807 9.76959 13.0095C9.7348 13.1862 9.70915 13.3662 9.6875 13.5473C9.74984 13.5423 9.80801 13.5242 9.87089 13.5215Z" fill="white"/>
<path d="M35.407 27.0764H10.0816C8.63452 27.0769 7.23816 26.5434 6.16001 25.5782C5.08187 24.613 4.39775 23.284 4.23873 21.8457C4.07971 20.4074 4.45696 18.9609 5.29821 17.7835C6.13946 16.6061 7.38556 15.7805 8.79778 15.4648C8.75032 15.1166 8.72627 14.7656 8.7258 14.4142C8.72361 13.0375 9.07116 11.6828 9.73586 10.4773C10.4006 9.27167 11.3606 8.2547 12.526 7.52174C13.6913 6.78879 15.0237 6.36387 16.3983 6.28685C17.7728 6.20984 19.1443 6.48325 20.3843 7.08144C21.6885 5.60163 23.387 4.5236 25.2812 3.97333C27.1754 3.42306 29.1871 3.42329 31.0812 3.97399C32.9753 4.52468 34.6735 5.6031 35.9774 7.0832C37.2813 8.5633 38.137 10.3839 38.4445 12.3323C40.07 13.031 41.4047 14.2693 42.223 15.838C43.0414 17.4067 43.2933 19.2097 42.9363 20.9427C42.5793 22.6756 41.6352 24.2322 40.2635 25.3497C38.8917 26.4672 37.1763 27.0772 35.407 27.0764ZM16.8654 8.08306C15.8974 8.07949 14.9415 8.29879 14.0718 8.72398C13.2021 9.14918 12.4419 9.76886 11.8502 10.535C11.2585 11.3012 10.851 12.1933 10.6594 13.1422C10.4678 14.0911 10.4972 15.0714 10.7454 16.0071C10.7793 16.1377 10.7836 16.2742 10.7579 16.4067C10.7322 16.5391 10.6772 16.6641 10.5969 16.7725C10.5166 16.881 10.4131 16.97 10.2939 17.0332C10.1747 17.0964 10.0429 17.1321 9.90805 17.1377C8.84499 17.1824 7.84178 17.6419 7.11363 18.4177C6.38547 19.1936 5.99038 20.2239 6.01309 21.2876C6.0358 22.3514 6.47451 23.3639 7.23511 24.1079C7.99571 24.852 9.01761 25.2683 10.0816 25.2676H35.407C36.7976 25.2682 38.1432 24.7757 39.2048 23.8776C40.2664 22.9795 40.975 21.734 41.2048 20.3626C41.4345 18.9912 41.1704 17.5828 40.4594 16.3878C39.7485 15.1927 38.6368 14.2886 37.3219 13.8361C37.1589 13.7799 37.0153 13.6782 36.9082 13.5431C36.8011 13.4079 36.7349 13.245 36.7173 13.0734C36.5408 11.3588 35.852 9.73699 34.7407 8.4193C33.6295 7.1016 32.1472 6.14904 30.4869 5.68566C28.8266 5.22227 27.0653 5.26953 25.4322 5.82128C23.7992 6.37302 22.3701 7.4037 21.3311 8.77908C21.1956 8.95682 20.9991 9.07821 20.7795 9.11995C20.56 9.16168 20.3327 9.12081 20.1414 9.0052C19.1544 8.40368 18.0212 8.08471 16.8654 8.08306Z" fill="#D1D6E0"/>
<path d="M37.2046 17.8055C37.0619 17.8053 36.9212 17.7714 36.7941 17.7065C36.6669 17.6416 36.557 17.5476 36.4731 17.4321C36.3892 17.3166 36.3338 17.183 36.3114 17.042C36.2891 16.901 36.3003 16.7568 36.3443 16.621C36.7624 15.3312 36.8696 13.9608 36.6572 12.6216C36.4447 11.2824 35.9186 10.0125 35.1217 8.91543C34.3249 7.81836 33.2799 6.92527 32.0721 6.30906C30.8643 5.69285 29.5279 5.37097 28.172 5.36971C27.9322 5.36971 27.7021 5.27442 27.5325 5.1048C27.3629 4.93518 27.2676 4.70514 27.2676 4.46526C27.2676 4.22539 27.3629 3.99534 27.5325 3.82572C27.7021 3.6561 27.9322 3.56081 28.172 3.56081C29.8134 3.56218 31.4311 3.95168 32.8933 4.69753C34.3554 5.44337 35.6204 6.52441 36.585 7.85239C37.5496 9.18037 38.1865 10.7177 38.4437 12.3387C38.7009 13.9598 38.5711 15.6187 38.0649 17.1801C38.0058 17.3617 37.8907 17.52 37.7362 17.6324C37.5817 17.7447 37.3956 17.8053 37.2046 17.8055Z" fill="#D1D6E0"/>
<path d="M13.3586 18.3597C13.1393 18.3599 12.9275 18.2801 12.7628 18.1353C12.0211 17.4855 11.0683 17.1275 10.0822 17.128C9.84231 17.128 9.61226 17.0327 9.44264 16.8631C9.27302 16.6935 9.17773 16.4634 9.17773 16.2236C9.17773 15.9837 9.27302 15.7536 9.44264 15.584C9.61226 15.4144 9.84231 15.3191 10.0822 15.3191C11.5071 15.3187 12.8835 15.8361 13.9552 16.7751C14.0936 16.8964 14.1917 17.057 14.2364 17.2355C14.2811 17.4139 14.2703 17.6018 14.2055 17.774C14.1407 17.9462 14.0248 18.0945 13.8735 18.1991C13.7222 18.3038 13.5426 18.3597 13.3586 18.3597Z" fill="#D1D6E0"/>
<path d="M22.7491 11.1055C22.6053 11.1057 22.4636 11.0716 22.3356 11.006C22.2076 10.9404 22.0972 10.8453 22.0134 10.7284C21.4262 9.91116 20.6533 9.24514 19.7582 8.78522C18.8632 8.3253 17.8717 8.08463 16.8654 8.08305C16.6255 8.08305 16.3955 7.98776 16.2258 7.81814C16.0562 7.64853 15.9609 7.41848 15.9609 7.1786C15.9609 6.93873 16.0562 6.70868 16.2258 6.53906C16.3955 6.36944 16.6255 6.27415 16.8654 6.27415C18.1589 6.27606 19.4334 6.58528 20.584 7.17634C21.7346 7.76741 22.7282 8.6234 23.4831 9.67378C23.5801 9.80887 23.6379 9.96807 23.6502 10.1339C23.6626 10.2997 23.629 10.4657 23.5531 10.6137C23.4773 10.7616 23.3621 10.8858 23.2203 10.9726C23.0784 11.0594 22.9154 11.1054 22.7491 11.1055Z" fill="#D1D6E0"/>
<path d="M72.4831 90.3817H48.9668V99.4279H72.4831V90.3817Z" fill="white"/>
<path d="M72.4825 100.332H48.966C48.7261 100.332 48.4961 100.237 48.3264 100.067C48.1568 99.8977 48.0615 99.6677 48.0615 99.4278V90.3816C48.0615 90.1417 48.1568 89.9117 48.3264 89.742C48.4961 89.5724 48.7261 89.4771 48.966 89.4771H72.4825C72.7224 89.4771 72.9524 89.5724 73.122 89.742C73.2916 89.9117 73.3869 90.1417 73.3869 90.3816V99.4278C73.3869 99.6677 73.2916 99.8977 73.122 100.067C72.9524 100.237 72.7224 100.332 72.4825 100.332ZM49.8704 98.5233H71.5781V91.286H49.8704V98.5233Z" fill="#75859E"/>
<path d="M76.0999 100.332H45.3478C45.1079 100.332 44.8779 100.237 44.7083 100.067C44.5387 99.8977 44.4434 99.6677 44.4434 99.4278C44.4434 99.1879 44.5387 98.9579 44.7083 98.7883C44.8779 98.6187 45.1079 98.5234 45.3478 98.5234H76.0999C76.3398 98.5234 76.5698 98.6187 76.7394 98.7883C76.9091 98.9579 77.0044 99.1879 77.0044 99.4278C77.0044 99.6677 76.9091 99.8977 76.7394 100.067C76.5698 100.237 76.3398 100.332 76.0999 100.332Z" fill="#75859E"/>
<path d="M25.4508 29.7876H96.9037C97.8632 29.7876 98.7834 30.1687 99.4619 30.8472C100.14 31.5257 100.522 32.4459 100.522 33.4054V82.2424H21.833V33.4054C21.833 32.4459 22.2142 31.5257 22.8926 30.8472C23.5711 30.1687 24.4913 29.7876 25.4508 29.7876Z" fill="#75859E"/>
<path d="M96.9024 33.4008H25.4492V78.621H96.9024V33.4008Z" fill="white"/>
<path d="M96.9034 79.5256H25.4503C25.2105 79.5255 24.9804 79.4302 24.8108 79.2606C24.6412 79.091 24.5459 78.861 24.5459 78.6211V33.401C24.5459 33.1611 24.6412 32.931 24.8108 32.7614C24.9804 32.5918 25.2105 32.4965 25.4503 32.4965H96.9034C97.1433 32.4965 97.3733 32.5918 97.543 32.7614C97.7126 32.931 97.8079 33.1611 97.8079 33.401V78.6211C97.8079 78.861 97.7126 79.091 97.5429 79.2606C97.3733 79.4302 97.1433 79.5255 96.9034 79.5256ZM26.3548 77.7167H95.999V34.3054H26.3548V77.7167Z" fill="#75859E"/>
<path d="M100.523 83.1469H21.8341C21.5943 83.1469 21.3642 83.0516 21.1946 82.882C21.025 82.7123 20.9297 82.4823 20.9297 82.2424V33.4054C20.9311 32.2064 21.408 31.057 22.2558 30.2092C23.1036 29.3614 24.253 28.8845 25.4519 28.8831H96.9051C98.104 28.8845 99.2534 29.3614 100.101 30.2092C100.949 31.057 101.426 32.2064 101.427 33.4054V82.2424C101.427 82.4823 101.332 82.7123 101.162 82.882C100.993 83.0516 100.763 83.1469 100.523 83.1469ZM22.7386 81.338H99.6184V33.4054C99.6176 32.686 99.3315 31.9963 98.8228 31.4876C98.3141 30.9789 97.6244 30.6928 96.9051 30.692H25.4519C24.7325 30.6928 24.0428 30.9789 23.5342 31.4876C23.0255 31.9963 22.7394 32.686 22.7386 33.4054V81.338Z" fill="#75859E"/>
<path d="M21.833 82.2435H100.522V86.7635C100.522 87.723 100.14 88.6432 99.4619 89.3217C98.7834 90.0002 97.8632 90.3813 96.9037 90.3813H25.4508C24.4913 90.3813 23.5711 90.0002 22.8926 89.3217C22.2142 88.6432 21.833 87.723 21.833 86.7635V82.2435Z" fill="white"/>
<path d="M96.9051 91.2856H25.4519C24.253 91.2842 23.1036 90.8073 22.2558 89.9595C21.408 89.1117 20.9311 87.9623 20.9297 86.7633V82.2433C20.9297 82.0034 21.025 81.7734 21.1946 81.6038C21.3642 81.4342 21.5943 81.3389 21.8341 81.3389H100.523C100.763 81.3389 100.993 81.4342 101.162 81.6038C101.332 81.7734 101.427 82.0034 101.427 82.2433V86.7633C101.426 87.9623 100.949 89.1117 100.101 89.9595C99.2534 90.8073 98.104 91.2842 96.9051 91.2856ZM22.7386 83.1478V86.7633C22.7394 87.4827 23.0255 88.1724 23.5342 88.6811C24.0428 89.1898 24.7325 89.4759 25.4519 89.4767H96.9051C97.6244 89.4759 98.3141 89.1898 98.8228 88.6811C99.3315 88.1724 99.6176 87.4827 99.6184 86.7633V83.1478H22.7386Z" fill="#75859E"/>
<path d="M10.978 70.4852H61.6271C62.3467 70.4852 63.0369 70.771 63.5457 71.2799C64.0546 71.7887 64.3405 72.4789 64.3405 73.1985V110.28H8.26465V73.1985C8.26465 72.4789 8.55052 71.7887 9.05937 71.2799C9.56822 70.771 10.2584 70.4852 10.978 70.4852Z" fill="#75859E"/>
<path d="M64.3395 111.185H8.26382C8.02395 111.185 7.79391 111.089 7.62429 110.92C7.45468 110.75 7.35939 110.52 7.35938 110.28V73.1984C7.36047 72.2392 7.74198 71.3197 8.42021 70.6415C9.09844 69.9632 10.018 69.5817 10.9772 69.5806H61.6262C62.5854 69.5817 63.5049 69.9632 64.1831 70.6415C64.8614 71.3197 65.2429 72.2392 65.244 73.1984V110.28C65.244 110.52 65.1487 110.75 64.9791 110.92C64.8095 111.089 64.5794 111.185 64.3395 111.185ZM9.16827 109.376H63.4351V73.1984C63.4346 72.7188 63.2439 72.259 62.9047 71.9199C62.5656 71.5807 62.1058 71.39 61.6262 71.3895H10.9772C10.4976 71.39 10.0377 71.5807 9.69861 71.9199C9.35948 72.259 9.16875 72.7188 9.16827 73.1984V109.376Z" fill="#75859E"/>
<path d="M27.2568 106.663H45.3733V107.568C45.3733 108.047 45.1827 108.507 44.8435 108.847C44.5042 109.186 44.0441 109.377 43.5644 109.377H29.0657C28.586 109.377 28.1259 109.186 27.7866 108.847C27.4474 108.507 27.2568 108.047 27.2568 107.568V106.663Z" fill="white"/>
<path d="M43.5644 110.281H29.0659C28.3465 110.28 27.6568 109.994 27.1481 109.485C26.6394 108.976 26.3533 108.287 26.3525 107.567V106.663C26.3526 106.423 26.4478 106.193 26.6175 106.023C26.7871 105.854 27.0171 105.759 27.257 105.758H45.3733C45.6132 105.759 45.8432 105.854 46.0128 106.023C46.1825 106.193 46.2777 106.423 46.2778 106.663V107.567C46.277 108.287 45.9909 108.976 45.4822 109.485C44.9735 109.994 44.2838 110.28 43.5644 110.281ZM28.1614 107.567C28.1617 107.807 28.2571 108.037 28.4267 108.207C28.5962 108.376 28.8261 108.472 29.0659 108.472H43.5644C43.8042 108.472 44.0341 108.376 44.2036 108.207C44.3732 108.037 44.4686 107.807 44.4689 107.567H28.1614Z" fill="#75859E"/>
<path d="M61.6257 73.1985H10.9766V103.95H61.6257V73.1985Z" fill="white"/>
<path d="M61.6257 104.854H10.9767C10.7368 104.854 10.5068 104.759 10.3372 104.589C10.1676 104.42 10.0723 104.189 10.0723 103.95V73.1984C10.0723 72.9585 10.1676 72.7285 10.3372 72.5589C10.5068 72.3893 10.7368 72.294 10.9767 72.2939H61.6257C61.8656 72.2939 62.0957 72.3892 62.2653 72.5589C62.4349 72.7285 62.5302 72.9585 62.5302 73.1984V103.95C62.5302 104.189 62.4349 104.42 62.2653 104.589C62.0957 104.759 61.8656 104.854 61.6257 104.854ZM11.8812 103.045H60.7213V74.1028H11.8812V103.045Z" fill="#75859E"/>
<path d="M69.766 106.663H45.3457V107.568C45.3457 108.047 45.1552 108.507 44.8159 108.847C44.4767 109.186 44.0166 109.377 43.5368 109.377H29.0661C28.5863 109.377 28.1262 109.186 27.787 108.847C27.4477 108.507 27.2572 108.047 27.2572 107.568V106.663H2.83691V108.472C2.83691 109.431 3.21807 110.352 3.89654 111.03C4.57501 111.709 5.49521 112.09 6.4547 112.09H66.1482C67.1077 112.09 68.0279 111.709 68.7064 111.03C69.3848 110.352 69.766 109.431 69.766 108.472V106.663Z" fill="white"/>
<path d="M66.1484 112.994H6.45485C5.25591 112.993 4.10648 112.516 3.25871 111.668C2.41093 110.82 1.93403 109.671 1.93262 108.472V106.663C1.93263 106.423 2.02792 106.193 2.19754 106.023C2.36715 105.854 2.59719 105.759 2.83706 105.758H27.2571C27.497 105.758 27.7271 105.854 27.8967 106.023C28.0663 106.193 28.1616 106.423 28.1616 106.663V107.567C28.1619 107.807 28.2573 108.037 28.4268 108.207C28.5964 108.376 28.8263 108.472 29.066 108.472H43.5367C43.7765 108.472 44.0064 108.376 44.1759 108.207C44.3455 108.037 44.4409 107.807 44.4412 107.567V106.663C44.4412 106.423 44.5365 106.193 44.7061 106.023C44.8757 105.854 45.1058 105.758 45.3456 105.758H69.7662C70.006 105.758 70.2361 105.854 70.4057 106.023C70.5753 106.193 70.6706 106.423 70.6706 106.663V108.472C70.6692 109.671 70.1923 110.82 69.3445 111.668C68.4967 112.516 67.3473 112.993 66.1484 112.994ZM3.74151 107.567V108.472C3.7423 109.191 4.02842 109.881 4.5371 110.39C5.04578 110.898 5.73547 111.184 6.45485 111.185H66.1484C66.8677 111.184 67.5574 110.898 68.0661 110.39C68.5748 109.881 68.8609 109.191 68.8617 108.472V107.567H46.2501C46.2493 108.287 45.9632 108.976 45.4545 109.485C44.9458 109.994 44.2561 110.28 43.5367 110.281H29.066C28.3466 110.28 27.657 109.994 27.1483 109.485C26.6396 108.976 26.3535 108.287 26.3527 107.567H3.74151Z" fill="#75859E"/>
<path d="M104.139 72.2965H86.0501C85.0511 72.2965 84.2412 73.1064 84.2412 74.1054V110.283C84.2412 111.282 85.0511 112.092 86.0501 112.092H104.139C105.138 112.092 105.948 111.282 105.948 110.283V74.1054C105.948 73.1064 105.138 72.2965 104.139 72.2965Z" fill="white"/>
<path d="M100.521 72.2966V73.2011C100.521 73.6808 100.331 74.1409 99.9915 74.4801C99.6523 74.8194 99.1922 75.0099 98.7124 75.0099H91.4769C90.9971 75.0099 90.537 74.8194 90.1978 74.4801C89.8585 74.1409 89.668 73.6808 89.668 73.2011V72.2966H100.521Z" fill="#75859E"/>
<path d="M104.139 112.997H86.0503C85.3309 112.996 84.6412 112.71 84.1325 112.201C83.6238 111.692 83.3377 111.003 83.3369 110.283V74.1055C83.3377 73.3861 83.6238 72.6964 84.1325 72.1877C84.6412 71.6791 85.3309 71.3929 86.0503 71.3922H104.139C104.859 71.3929 105.548 71.6791 106.057 72.1877C106.566 72.6964 106.852 73.3861 106.853 74.1055V110.283C106.852 111.003 106.566 111.692 106.057 112.201C105.548 112.71 104.859 112.996 104.139 112.997ZM86.0503 73.201C85.8105 73.2014 85.5806 73.2967 85.4111 73.4663C85.2415 73.6358 85.1461 73.8657 85.1458 74.1055V110.283C85.1461 110.523 85.2415 110.753 85.4111 110.923C85.5806 111.092 85.8105 111.188 86.0503 111.188H104.139C104.379 111.188 104.609 111.092 104.778 110.923C104.948 110.753 105.043 110.523 105.044 110.283V74.1055C105.043 73.8657 104.948 73.6358 104.778 73.4663C104.609 73.2967 104.379 73.2014 104.139 73.201H86.0503Z" fill="#75859E"/>
<path d="M98.7116 75.9144H91.476C90.7567 75.9136 90.067 75.6275 89.5583 75.1188C89.0496 74.6101 88.7635 73.9204 88.7627 73.201V72.2966C88.7627 72.0567 88.858 71.8267 89.0276 71.6571C89.1972 71.4874 89.4273 71.3922 89.6671 71.3922C89.907 71.3922 90.1371 71.4874 90.3067 71.6571C90.4763 71.8267 90.5716 72.0567 90.5716 72.2966V73.201C90.5719 73.4408 90.6673 73.6707 90.8368 73.8402C91.0064 74.0098 91.2363 74.1052 91.476 74.1055H98.7116C98.9514 74.1052 99.1813 74.0098 99.3508 73.8402C99.5204 73.6707 99.6157 73.4408 99.6161 73.201V72.2966C99.6161 72.0567 99.7113 71.8267 99.881 71.6571C100.051 71.4874 100.281 71.3922 100.521 71.3922C100.76 71.3922 100.99 71.4874 101.16 71.6571C101.33 71.8267 101.425 72.0567 101.425 72.2966V73.201C101.424 73.9204 101.138 74.6101 100.629 75.1188C100.121 75.6275 99.431 75.9136 98.7116 75.9144Z" fill="#75859E"/>
<path d="M60.7257 84.0556C70.7159 84.0556 78.8146 75.9569 78.8146 65.9667C78.8146 55.9764 70.7159 47.8777 60.7257 47.8777C50.7354 47.8777 42.6367 55.9764 42.6367 65.9667C42.6367 75.9569 50.7354 84.0556 60.7257 84.0556Z" fill="#016AAE"/>
<path d="M60.7248 84.9602C56.9683 84.9602 53.2961 83.8462 50.1727 81.7592C47.0492 79.6722 44.6148 76.7058 43.1772 73.2353C41.7397 69.7647 41.3635 65.9457 42.0964 62.2614C42.8293 58.577 44.6382 55.1927 47.2945 52.5364C49.9508 49.8802 53.3351 48.0712 57.0194 47.3384C60.7038 46.6055 64.5227 46.9816 67.9933 48.4192C71.4639 49.8568 74.4302 52.2912 76.5173 55.4146C78.6043 58.5381 79.7182 62.2103 79.7182 65.9668C79.7126 71.0024 77.7097 75.8302 74.149 79.3909C70.5882 82.9516 65.7605 84.9545 60.7248 84.9602ZM60.7248 48.7823C57.3261 48.7823 54.0036 49.7902 51.1776 51.6784C48.3517 53.5667 46.1491 56.2505 44.8484 59.3906C43.5478 62.5306 43.2075 65.9859 43.8705 69.3193C44.5336 72.6528 46.1703 75.7148 48.5736 78.1181C50.9769 80.5214 54.0388 82.158 57.3723 82.8211C60.7058 83.4842 64.161 83.1439 67.3011 81.8432C70.4411 80.5425 73.125 78.34 75.0132 75.514C76.9015 72.688 77.9093 69.3656 77.9093 65.9668C77.9042 61.4108 76.092 57.0428 72.8704 53.8212C69.6488 50.5996 65.2809 48.7875 60.7248 48.7823Z" fill="#016AAE"/>
<path d="M49.8712 75.9144C49.6314 75.9144 49.4013 75.8191 49.2317 75.6495C49.0621 75.4799 48.9668 75.2498 48.9668 75.0099V69.5832C48.9668 69.3434 49.0621 69.1133 49.2317 68.9437C49.4013 68.7741 49.6314 68.6788 49.8712 68.6788C50.1111 68.6788 50.3412 68.7741 50.5108 68.9437C50.6804 69.1133 50.7757 69.3434 50.7757 69.5832V75.0099C50.7757 75.2498 50.6804 75.4799 50.5108 75.6495C50.3412 75.8191 50.1111 75.9144 49.8712 75.9144Z" fill="white"/>
<path d="M50.5032 63.2526C50.3584 63.2525 50.2158 63.2177 50.0873 63.151C49.9588 63.0844 49.8481 62.988 49.7645 62.8697C49.681 62.7515 49.6271 62.615 49.6072 62.4716C49.5873 62.3282 49.6022 62.1821 49.6504 62.0456C50.4587 59.7538 51.9581 57.7691 53.9418 56.3653C55.9255 54.9615 58.2959 54.2076 60.7261 54.2077C63.1563 54.2077 65.5266 54.9617 67.5103 56.3656C69.4939 57.7695 70.9932 59.7542 71.8014 62.0461C71.8808 62.2721 71.8673 62.5204 71.7639 62.7365C71.6604 62.9525 71.4755 63.1188 71.2496 63.1987C71.0238 63.2786 70.7755 63.2656 70.5591 63.1626C70.3428 63.0596 70.1762 62.875 70.0959 62.6493C69.4125 60.71 68.1441 59.0305 66.4658 57.8425C64.7876 56.6545 62.782 56.0165 60.7258 56.0166C58.6695 56.0166 56.664 56.6547 54.9858 57.8428C53.3075 59.0308 52.0393 60.7104 51.356 62.6498C51.2935 62.826 51.1779 62.9786 51.0252 63.0865C50.8726 63.1944 50.6902 63.2524 50.5032 63.2526Z" fill="white"/>
<path d="M60.7261 77.7233C58.297 77.7187 55.9288 76.963 53.946 75.5598C51.9632 74.1566 50.4628 72.1746 49.6506 69.8853C49.5704 69.6592 49.5834 69.4104 49.6867 69.1938C49.79 68.9773 49.9751 68.8106 50.2013 68.7305C50.4274 68.6503 50.6762 68.6634 50.8927 68.7666C51.1093 68.8699 51.276 69.055 51.3561 69.2812C52.0394 71.2205 53.3077 72.9001 54.9859 74.0882C56.6641 75.2762 58.6697 75.9143 60.7259 75.9144C62.7821 75.9144 64.7877 75.2764 66.466 74.0884C68.1443 72.9004 69.4126 71.2209 70.096 69.2816C70.1764 69.0559 70.343 68.8713 70.5593 68.7683C70.7756 68.6653 71.0239 68.6524 71.2498 68.7323C71.4756 68.8121 71.6606 68.9784 71.764 69.1945C71.8675 69.4105 71.881 69.6588 71.8016 69.8849C70.9895 72.1743 69.4892 74.1565 67.5064 75.5598C65.5236 76.9631 63.1552 77.7188 60.7261 77.7233Z" fill="white"/>
<path d="M71.5783 63.2521C71.3384 63.2521 71.1084 63.1568 70.9387 62.9872C70.7691 62.8176 70.6738 62.5876 70.6738 62.3477V56.921C70.6738 56.6811 70.7691 56.4511 70.9387 56.2815C71.1084 56.1118 71.3384 56.0166 71.5783 56.0166C71.8181 56.0166 72.0482 56.1118 72.2178 56.2815C72.3874 56.4511 72.4827 56.6811 72.4827 56.921V62.3477C72.4827 62.5876 72.3874 62.8176 72.2178 62.9872C72.0482 63.1568 71.8181 63.2521 71.5783 63.2521Z" fill="white"/>
<path d="M71.5782 63.2521H66.1515C65.9116 63.2521 65.6816 63.1568 65.512 62.9872C65.3424 62.8176 65.2471 62.5876 65.2471 62.3477C65.2471 62.1078 65.3424 61.8778 65.512 61.7081C65.6816 61.5385 65.9116 61.4432 66.1515 61.4432H71.5782C71.8181 61.4432 72.0481 61.5385 72.2177 61.7081C72.3874 61.8778 72.4826 62.1078 72.4826 62.3477C72.4826 62.5876 72.3874 62.8176 72.2177 62.9872C72.0481 63.1568 71.8181 63.2521 71.5782 63.2521Z" fill="white"/>
<path d="M55.2979 70.4877H49.8712C49.6314 70.4877 49.4013 70.3924 49.2317 70.2228C49.0621 70.0532 48.9668 69.8231 48.9668 69.5832C48.9668 69.3434 49.0621 69.1133 49.2317 68.9437C49.4013 68.7741 49.6314 68.6788 49.8712 68.6788H55.2979C55.5378 68.6788 55.7678 68.7741 55.9375 68.9437C56.1071 69.1133 56.2024 69.3434 56.2024 69.5832C56.2024 69.8231 56.1071 70.0532 55.9375 70.2228C55.7678 70.3924 55.5378 70.4877 55.2979 70.4877Z" fill="white"/>
</svg>
